<svg width="25" height="25" viewBox="0 0 25 25" fill="none" xmlns="http://www.w3.org/2000/svg">
<path d="M5.5 23.025C4.95 23.025 4.479 22.8293 4.087 22.438C3.695 22.0467 3.49934 21.5757 3.5 21.025V7.025C3.5 6.475 3.696 6.004 4.088 5.612C4.48 5.22 4.95067 5.02433 5.5 5.025H14.425L12.425 7.025H5.5V21.025H19.5V14.075L21.5 12.075V21.025C21.5 21.575 21.304 22.046 20.912 22.438C20.52 22.83 20.0493 23.0257 19.5 23.025H5.5ZM16.675 5.6L18.1 7L11.5 13.6V15.025H12.9L19.525 8.4L20.95 9.8L13.75 17.025H9.5V12.775L16.675 5.6ZM20.95 9.8L16.675 5.6L19.175 3.1C19.575 2.7 20.0543 2.5 20.613 2.5C21.1717 2.5 21.6423 2.7 22.025 3.1L23.425 4.525C23.8083 4.90833 24 5.375 24 5.925C24 6.475 23.8083 6.94167 23.425 7.325L20.95 9.8Z" fill="white"/>
</svg>
