<svg width="44" height="30" viewBox="0 0 44 30" fill="none" xmlns="http://www.w3.org/2000/svg">
<g clip-path="url(#clip0_2844_1307)">
<path d="M22 3C18.7435 3 18.334 3.015 17.0545 3.072C15.775 3.132 14.9035 3.333 14.14 3.63C13.3388 3.93049 12.6132 4.4031 12.0145 5.0145C11.4031 5.61321 10.9305 6.33877 10.63 7.14C10.333 7.902 10.1305 8.775 10.072 10.05C10.015 11.3325 10 11.7405 10 15.0015C10 18.2595 10.015 18.6675 10.072 19.947C10.132 21.225 10.333 22.0965 10.63 22.86C10.9375 23.649 11.347 24.318 12.0145 24.9855C12.6805 25.653 13.3495 26.064 14.1385 26.37C14.9035 26.667 15.7735 26.8695 17.0515 26.928C18.3325 26.985 18.7405 27 22 27C25.2595 27 25.666 26.985 26.947 26.928C28.2235 26.868 29.098 26.667 29.8615 26.37C30.6622 26.0693 31.3872 25.5967 31.9855 24.9855C32.653 24.318 33.0625 23.649 33.37 22.86C33.6655 22.0965 33.868 21.225 33.928 19.947C33.985 18.6675 34 18.2595 34 15C34 11.7405 33.985 11.3325 33.928 10.0515C33.868 8.775 33.6655 7.902 33.37 7.14C33.0695 6.33877 32.5969 5.61321 31.9855 5.0145C31.3868 4.4031 30.6612 3.93049 29.86 3.63C29.095 3.333 28.222 3.1305 26.9455 3.072C25.6645 3.015 25.258 3 21.997 3H22ZM20.9245 5.163H22.0015C25.2055 5.163 25.585 5.1735 26.8495 5.232C28.0195 5.2845 28.6555 5.481 29.0785 5.6445C29.638 5.862 30.0385 6.123 30.4585 6.543C30.8785 6.963 31.138 7.362 31.3555 7.923C31.5205 8.3445 31.7155 8.9805 31.768 10.1505C31.8265 11.415 31.8385 11.7945 31.8385 14.997C31.8385 18.1995 31.8265 18.5805 31.768 19.845C31.7155 21.015 31.519 21.6495 31.3555 22.0725C31.1617 22.5929 30.8549 23.0637 30.457 23.451C30.037 23.871 29.638 24.1305 29.077 24.348C28.657 24.513 28.021 24.708 26.8495 24.762C25.585 24.819 25.2055 24.8325 22.0015 24.8325C18.7975 24.8325 18.4165 24.819 17.152 24.762C15.982 24.708 15.3475 24.513 14.9245 24.348C14.4037 24.1549 13.9324 23.8485 13.5445 23.451C13.1459 23.0634 12.8385 22.592 12.6445 22.071C12.481 21.6495 12.2845 21.0135 12.232 19.8435C12.175 18.579 12.163 18.1995 12.163 14.994C12.163 11.7885 12.175 11.412 12.232 10.1475C12.286 8.9775 12.481 8.3415 12.646 7.9185C12.8635 7.359 13.1245 6.9585 13.5445 6.5385C13.9645 6.1185 14.3635 5.859 14.9245 5.6415C15.3475 5.4765 15.982 5.2815 17.152 5.2275C18.259 5.1765 18.688 5.1615 20.9245 5.16V5.163ZM28.4065 7.155C28.2174 7.155 28.0301 7.19225 27.8554 7.26461C27.6807 7.33698 27.522 7.44305 27.3883 7.57677C27.2545 7.71048 27.1485 7.86923 27.0761 8.04394C27.0037 8.21864 26.9665 8.4059 26.9665 8.595C26.9665 8.7841 27.0037 8.97135 27.0761 9.14606C27.1485 9.32077 27.2545 9.47952 27.3883 9.61323C27.522 9.74695 27.6807 9.85302 27.8554 9.92539C28.0301 9.99775 28.2174 10.035 28.4065 10.035C28.7884 10.035 29.1547 9.88329 29.4247 9.61323C29.6948 9.34318 29.8465 8.97691 29.8465 8.595C29.8465 8.21309 29.6948 7.84682 29.4247 7.57677C29.1547 7.30671 28.7884 7.155 28.4065 7.155ZM22.0015 8.838C21.1841 8.82525 20.3723 8.97523 19.6135 9.27921C18.8546 9.58319 18.1638 10.0351 17.5812 10.6086C16.9987 11.1822 16.536 11.8659 16.2203 12.6199C15.9045 13.3739 15.7419 14.1833 15.7419 15.0007C15.7419 15.8182 15.9045 16.6276 16.2203 17.3816C16.536 18.1356 16.9987 18.8193 17.5812 19.3929C18.1638 19.9664 18.8546 20.4183 19.6135 20.7223C20.3723 21.0263 21.1841 21.1763 22.0015 21.1635C23.6193 21.1383 25.1623 20.4779 26.2975 19.3249C27.4326 18.1719 28.0689 16.6188 28.0689 15.0007C28.0689 13.3827 27.4326 11.8296 26.2975 10.6766C25.1623 9.52363 23.6193 8.86324 22.0015 8.838ZM22.0015 10.9995C22.5269 10.9995 23.0471 11.103 23.5324 11.304C24.0178 11.5051 24.4588 11.7997 24.8303 12.1712C25.2018 12.5427 25.4964 12.9837 25.6975 13.4691C25.8985 13.9544 26.002 14.4746 26.002 15C26.002 15.5254 25.8985 16.0456 25.6975 16.5309C25.4964 17.0163 25.2018 17.4573 24.8303 17.8288C24.4588 18.2003 24.0178 18.4949 23.5324 18.696C23.0471 18.897 22.5269 19.0005 22.0015 19.0005C20.9405 19.0005 19.923 18.579 19.1727 17.8288C18.4225 17.0785 18.001 16.061 18.001 15C18.001 13.939 18.4225 12.9215 19.1727 12.1712C19.923 11.421 20.9405 10.9995 22.0015 10.9995Z" fill="white"/>
</g>
<defs>
<clipPath id="clip0_2844_1307">
<rect width="24" height="24" fill="white" transform="translate(10 3)"/>
</clipPath>
</defs>
</svg>
