<svg width="14" height="14" viewBox="0 0 14 14" fill="none" xmlns="http://www.w3.org/2000/svg">
<path d="M7.00008 1.3125C5.98665 1.3125 5.01474 1.71508 4.29814 2.43168C3.58154 3.14828 3.17896 4.1202 3.17896 5.13362C3.17896 8.12408 6.09621 11.7227 6.86066 12.6067C6.90169 12.6537 6.95969 12.6826 7.02195 12.687C7.08421 12.6914 7.14567 12.6709 7.19287 12.63L7.21621 12.6067C7.97046 11.7192 10.8209 8.12408 10.8209 5.13333C10.8208 4.12001 10.4183 3.14821 9.70173 2.43168C8.9852 1.71515 8.0134 1.31258 7.00008 1.3125ZM7.00008 6.1705C6.74378 6.1705 6.49324 6.0945 6.28013 5.95211C6.06702 5.80971 5.90093 5.60733 5.80285 5.37053C5.70477 5.13374 5.6791 4.87319 5.7291 4.62181C5.77911 4.37044 5.90253 4.13953 6.08376 3.9583C6.26499 3.77707 6.49589 3.65365 6.74727 3.60365C6.99864 3.55365 7.2592 3.57931 7.49599 3.67739C7.73278 3.77547 7.93517 3.94157 8.07756 4.15468C8.21995 4.36778 8.29596 4.61832 8.29596 4.87462V4.87783C8.29511 5.22096 8.1582 5.54975 7.91527 5.79208C7.67234 6.03441 7.34321 6.1705 7.00008 6.1705Z" stroke="#219B30" stroke-linecap="round" stroke-linejoin="round"/>
</svg>
