<svg xmlns="http://www.w3.org/2000/svg" height="24" viewBox="0 -960 960 960" width="24"><path d="M480-479q-64.5 0-109.75-45.25T325-634q0-64.5 45.25-109.75T480-789q64.5 0 109.75 45.25T635-634q0 64.5-45.25 109.75T480-479ZM169-173v-106q0-33 16.75-60.25t45.272-41.761Q292-411 354.25-426.25 416.5-441.5 480-441.5t125.75 15.25Q668-411 728.978-381.011 757.5-366.5 774.25-339.25 791-312 791-279v106H169Zm75-75h472v-31q0-11.19-5.5-20.345t-15-14.155Q642-340 588.325-353.25 534.651-366.5 480-366.5q-55 0-108.5 13.25t-107 39.75q-9.5 5-15 14.155T244-279v31Zm236-306q33 0 56.5-23.5T560-634q0-33-23.5-56.5T480-714q-33 0-56.5 23.5T400-634q0 33 23.5 56.5T480-554Zm0-80Zm0 386Z"/></svg>