<svg width="57" height="57" viewBox="0 0 57 57" fill="none" xmlns="http://www.w3.org/2000/svg">
<path d="M20 54H37M20 54V39.8333M20 54H4.7C4.24913 54 3.81673 53.8209 3.49792 53.5021C3.17911 53.1833 3 52.7509 3 52.3V41.5333C3 41.0825 3.17911 40.6501 3.49792 40.3312C3.81673 40.0124 4.24913 39.8333 4.7 39.8333H20M37 54V20M37 54H52.3C52.7509 54 53.1833 53.8209 53.5021 53.5021C53.8209 53.1833 54 52.7509 54 52.3V4.7C54 4.24913 53.8209 3.81673 53.5021 3.49792C53.1833 3.17911 52.7509 3 52.3 3H38.7C38.2491 3 37.8167 3.17911 37.4979 3.49792C37.1791 3.81673 37 4.24913 37 4.7V20M20 39.8333V21.7C20 21.2491 20.1791 20.8167 20.4979 20.4979C20.8167 20.1791 21.2491 20 21.7 20H37" stroke="#3BA549" stroke-width="5"/>
</svg>
