<svg width="69" height="69" viewBox="0 0 69 69" fill="none" xmlns="http://www.w3.org/2000/svg">
<path d="M46.7069 12.921C45.0324 12.921 44.1949 12.921 43.4322 12.638C43.3262 12.5987 43.2219 12.5554 43.1191 12.5083C42.3796 12.1691 41.7877 11.577 40.6034 10.3929C37.878 7.66752 36.5154 6.30483 34.8387 6.17917C34.6134 6.16228 34.3867 6.16228 34.1615 6.17917C32.4847 6.30483 31.1219 7.66752 28.3967 10.3929C27.2126 11.577 26.6205 12.1691 25.881 12.5083C25.7783 12.5554 25.6739 12.5987 25.5679 12.638C24.8051 12.921 23.9678 12.921 22.2933 12.921H21.9844C17.712 12.921 15.5758 12.921 14.2485 14.2483C12.9212 15.5755 12.9212 17.7117 12.9212 21.9841V22.293C12.9212 23.9676 12.9212 24.8049 12.6382 25.5677C12.5989 25.6736 12.5557 25.778 12.5085 25.8808C12.1693 26.6203 11.5773 27.2123 10.3931 28.3964C7.66776 31.1217 6.30507 32.4845 6.17941 34.1613C6.16253 34.3865 6.16253 34.6132 6.17941 34.8384C6.30507 36.5152 7.66776 37.8777 10.3931 40.6031C11.5773 41.7875 12.1693 42.3793 12.5085 43.1188C12.5557 43.2217 12.5989 43.326 12.6382 43.4319C12.9212 44.1947 12.9212 45.0322 12.9212 46.7067V47.0155C12.9212 51.2879 12.9212 53.4242 14.2485 54.7514C15.5758 56.0788 17.712 56.0788 21.9844 56.0788H22.2933C23.9678 56.0788 24.8051 56.0788 25.5679 56.3616C25.6739 56.4009 25.7783 56.4443 25.881 56.4913C26.6205 56.8308 27.2126 57.4226 28.3967 58.6067C31.1219 61.3321 32.4847 62.6949 34.1615 62.8204C34.3867 62.8374 34.6134 62.8374 34.8387 62.8204C36.5154 62.6949 37.878 61.3321 40.6034 58.6067C41.7877 57.4226 42.3796 56.8308 43.1191 56.4913C43.2219 56.4443 43.3262 56.4009 43.4322 56.3616C44.1949 56.0788 45.0324 56.0788 46.7069 56.0788H47.0158C51.2881 56.0788 53.4245 56.0788 54.7516 54.7514C56.079 53.4242 56.079 51.2879 56.079 47.0155V46.7067C56.079 45.0322 56.079 44.1947 56.3618 43.4319C56.4012 43.326 56.4445 43.2217 56.4916 43.1188C56.831 42.3793 57.4229 41.7875 58.6069 40.6031C61.3323 37.8777 62.6952 36.5152 62.8207 34.8384C62.8377 34.6132 62.8377 34.3865 62.8207 34.1613C62.6952 32.4845 61.3323 31.1217 58.6069 28.3964C57.4229 27.2123 56.831 26.6203 56.4916 25.8808C56.4445 25.778 56.4012 25.6736 56.3618 25.5677C56.079 24.8049 56.079 23.9676 56.079 22.293V21.9841C56.079 17.7117 56.079 15.5755 54.7516 14.2483C53.4245 12.921 51.2881 12.921 47.0158 12.921H46.7069Z" stroke="#3BA549" stroke-width="4"/>
<path d="M44.4166 34.5002C44.4166 39.977 39.9768 44.4168 34.4999 44.4168C29.0231 44.4168 24.5833 39.977 24.5833 34.5002C24.5833 29.0233 29.0231 24.5835 34.4999 24.5835C39.9768 24.5835 44.4166 29.0233 44.4166 34.5002Z" stroke="#3BA549" stroke-width="3"/>
</svg>
