<?xml version="1.0" standalone="no"?>
<!DOCTYPE svg PUBLIC "-//W3C//DTD SVG 20010904//EN"
 "http://www.w3.org/TR/2001/REC-SVG-20010904/DTD/svg10.dtd">
<svg version="1.0" xmlns="http://www.w3.org/2000/svg"
 width="282.000000pt" height="95.000000pt" viewBox="0 0 282.000000 95.000000"
 preserveAspectRatio="xMidYMid meet">

<g transform="translate(0.000000,95.000000) scale(0.100000,-0.100000)"
fill="#000000" stroke="none">
<path d="M2248 745 c-3 -3 -3 -17 0 -30 3 -18 10 -25 26 -24 17 1 17 2 4 6
-10 2 -18 8 -18 13 0 5 8 11 18 13 14 4 14 5 -3 7 l-20 1 20 9 c20 8 20 9 -1
9 -11 1 -23 -1 -26 -4z"/>
<path d="M2313 733 c-7 -3 -12 -14 -12 -26 1 -17 2 -18 6 -4 2 9 8 17 13 17 5
0 11 -8 13 -17 4 -14 5 -13 6 4 1 24 -8 33 -26 26z"/>
<path d="M2354 715 c4 -24 16 -30 16 -7 0 12 -4 22 -9 22 -5 0 -8 -7 -7 -15z"/>
<path d="M2381 707 c-1 -25 1 -27 19 -17 11 6 19 18 19 28 -1 16 -2 16 -6 0
-2 -10 -8 -18 -13 -18 -5 0 -11 8 -13 18 -3 10 -5 6 -6 -11z"/>
<path d="M2430 710 c0 -11 2 -20 4 -20 2 0 6 9 9 20 3 11 1 20 -4 20 -5 0 -9
-9 -9 -20z"/>
<path d="M2462 713 c2 -9 10 -18 18 -20 13 -4 13 -3 0 6 -13 9 -13 11 3 11 24
0 21 15 -4 17 -14 1 -19 -3 -17 -14z"/>
<path d="M2512 713 c2 -12 14 -18 38 -19 42 -2 51 2 44 21 -6 16 -25 16 -36 0
-5 -6 -12 -5 -20 3 -17 17 -30 15 -26 -5z"/>
<path d="M2387 649 c-76 -13 -128 -72 -135 -153 -8 -104 63 -181 168 -181 103
0 170 68 170 173 0 104 -95 180 -203 161z m121 -46 c61 -44 79 -134 39 -193
-62 -93 -184 -96 -251 -7 -48 64 -16 180 58 213 41 19 120 12 154 -13z"/>
<path d="M2350 480 l0 -100 50 0 c87 0 127 37 95 87 -12 18 -13 27 -3 42 9 15
9 25 0 45 -11 24 -16 26 -77 26 l-65 0 0 -100z m115 50 c0 -22 -5 -25 -42 -28
-42 -3 -43 -2 -43 28 0 30 1 31 43 28 37 -3 42 -6 42 -28z m13 -84 c5 -26 -24
-46 -65 -46 -31 0 -33 2 -33 36 l0 35 47 -3 c38 -2 49 -7 51 -22z"/>
<path d="M2560 310 c0 -5 5 -10 10 -10 6 0 10 5 10 10 0 6 -4 10 -10 10 -5 0
-10 -4 -10 -10z"/>
<path d="M2261 272 c-6 -2 -11 -8 -11 -13 0 -5 74 -9 170 -9 107 0 170 4 170
10 0 6 -6 11 -12 12 -28 3 -306 4 -317 0z"/>
<path d="M2262 203 c2 -14 14 -18 45 -19 26 0 44 5 47 13 5 13 -32 12 -66 -2
-11 -4 -18 -3 -18 3 0 6 8 13 18 15 12 3 11 5 -6 6 -17 1 -23 -4 -20 -16z"/>
<path d="M2372 200 c0 -14 2 -19 5 -12 2 6 2 18 0 25 -3 6 -5 1 -5 -13z"/>
<path d="M2392 200 c0 -14 2 -19 5 -12 2 6 2 18 0 25 -3 6 -5 1 -5 -13z"/>
<path d="M2410 200 c0 -11 2 -20 4 -20 2 0 6 9 9 20 3 11 1 20 -4 20 -5 0 -9
-9 -9 -20z"/>
<path d="M2440 195 c0 -8 8 -15 18 -15 13 0 14 2 3 9 -11 7 -11 9 0 14 10 4 9
6 -3 6 -10 1 -18 -6 -18 -14z"/>
<path d="M2480 196 c0 -7 19 -12 50 -13 36 0 50 3 50 13 0 11 -5 11 -26 2 -15
-7 -28 -8 -32 -2 -10 13 -42 14 -42 0z"/>
</g>
</svg>
