<svg width="24" height="25" viewBox="0 0 24 25" fill="none" xmlns="http://www.w3.org/2000/svg">
<path fill-rule="evenodd" clip-rule="evenodd" d="M13.5579 6.03472C12.6873 5.19936 11.3128 5.19936 10.4422 6.03472L5.8158 10.4741C5.70245 10.5828 5.6262 10.7245 5.59787 10.879C5.04373 13.9009 5.00283 16.9945 5.47687 20.03L5.58939 20.7505H8.56585V14.5391C8.56585 14.1249 8.90164 13.7891 9.31585 13.7891H14.6843C15.0985 13.7891 15.4343 14.1249 15.4343 14.5391V20.7505H18.4107L18.5232 20.03C18.9973 16.9945 18.9564 13.9009 18.4023 10.879C18.3739 10.7245 18.2977 10.5828 18.1843 10.4741L13.5579 6.03472ZM9.40369 4.9524C10.8546 3.56014 13.1455 3.56014 14.5964 4.9524L19.2229 9.39174C19.5634 9.71853 19.7925 10.1442 19.8777 10.6085C20.4622 13.7961 20.5053 17.0594 20.0053 20.2614L19.8245 21.4189C19.7498 21.8976 19.3375 22.2505 18.853 22.2505H14.6843C14.2701 22.2505 13.9343 21.9147 13.9343 21.5005V15.2891H10.0659V21.5005C10.0659 21.9147 9.73007 22.2505 9.31585 22.2505H5.14712C4.66264 22.2505 4.25035 21.8976 4.1756 21.4189L3.99484 20.2614C3.49479 17.0594 3.53794 13.7961 4.12247 10.6085C4.2076 10.1442 4.43668 9.71853 4.77725 9.39173L9.40369 4.9524Z" fill="#015E83"/>
</svg>
