<svg width="24" height="25" viewBox="0 0 24 25" fill="none" xmlns="http://www.w3.org/2000/svg">
<path d="M4 2.5H20C21.1 2.5 22 3.4 22 4.5V10.5H10V20.5H14.55C14.73 20.8 14.91 21.08 15.09 21.34C15.38 21.77 15.66 22.16 15.92 22.5H4C2.9 22.5 2 21.6 2 20.5V4.5C2 3.4 2.9 2.5 4 2.5ZM8 4.5H4V14.5H8V4.5ZM4 16.5V20.5H8V16.5H4ZM10 8.5H20V4.5H10V8.5ZM18.5 22.5C18.5 22.5 17.92 21.85 17.23 20.91C17.14 20.78 17.04 20.64 16.94 20.5C16 19.16 15 17.39 15 16C15 14.1 16.6 12.5 18.5 12.5C19.03 12.5 19.54 12.63 20 12.85C21.17 13.42 22 14.63 22 16C22 17.54 20.77 19.54 19.77 20.91C19.08 21.85 18.5 22.5 18.5 22.5ZM17.3 16.1C17.3 16.7 17.8 17.3 18.5 17.3C19.2 17.3 19.8 16.7 19.7 16.1C19.7 15.5 19.1 14.9 18.5 14.9C17.9 14.9 17.3 15.4 17.3 16.1Z" fill="#015E83"/>
</svg>
