<svg width="24" height="25" viewBox="0 0 24 25" fill="none" xmlns="http://www.w3.org/2000/svg">
<path fill-rule="evenodd" clip-rule="evenodd" d="M16.875 2C17.1734 2 17.4595 2.11853 17.6705 2.3295C17.8815 2.54048 18 2.82663 18 3.125V5H21C21.3978 5 21.7794 5.15804 22.0607 5.43934C22.342 5.72064 22.5 6.10218 22.5 6.5V21.5C22.5 21.8978 22.342 22.2794 22.0607 22.5607C21.7794 22.842 21.3978 23 21 23H3C2.60218 23 2.22064 22.842 1.93934 22.5607C1.65804 22.2794 1.5 21.8978 1.5 21.5V6.5C1.5 6.10218 1.65804 5.72064 1.93934 5.43934C2.22064 5.15804 2.60218 5 3 5H6V3.125C6 2.82663 6.11853 2.54048 6.3295 2.3295C6.54048 2.11853 6.82663 2 7.125 2C7.42337 2 7.70952 2.11853 7.9205 2.3295C8.13147 2.54048 8.25 2.82663 8.25 3.125V5H15.75V3.125C15.75 2.82663 15.8685 2.54048 16.0795 2.3295C16.2905 2.11853 16.5766 2 16.875 2ZM3.75 11.75V20.75H20.25V11.75H3.75ZM3.75 9.5H20.25V7.25H3.75V9.5ZM15.42 13.955C15.6307 14.1659 15.749 14.4519 15.749 14.75C15.749 15.0481 15.6307 15.3341 15.42 15.545L12.045 18.92C11.8341 19.1307 11.5481 19.249 11.25 19.249C10.9519 19.249 10.6659 19.1307 10.455 18.92L8.58 17.045C8.46947 16.942 8.38082 16.8178 8.31933 16.6798C8.25784 16.5418 8.22478 16.3928 8.22211 16.2418C8.21945 16.0907 8.24723 15.9407 8.30382 15.8006C8.3604 15.6605 8.44461 15.5333 8.55144 15.4264C8.65827 15.3196 8.78552 15.2354 8.9256 15.1788C9.06569 15.1222 9.21573 15.0944 9.36678 15.0971C9.51784 15.0998 9.66681 15.1328 9.80481 15.1943C9.94281 15.2558 10.067 15.3445 10.17 15.455L11.25 16.535L13.83 13.955C14.0409 13.7443 14.3269 13.626 14.625 13.626C14.9231 13.626 15.2091 13.7443 15.42 13.955Z" fill="#015E83"/>
</svg>
