<svg width="24" height="25" viewBox="0 0 24 25" fill="none" xmlns="http://www.w3.org/2000/svg">
<path fill-rule="evenodd" clip-rule="evenodd" d="M11.9998 3.57848L9.78697 5.86798C9.55145 6.11167 9.22707 6.24928 8.88816 6.24928H5.74977V9.38767C5.74977 9.72658 5.61216 10.051 5.36847 10.2865L3.07897 12.4993L5.36847 14.7121C5.61216 14.9476 5.74977 15.272 5.74977 15.6109V18.7493H8.88816C9.22707 18.7493 9.55145 18.8869 9.78697 19.1306L11.9998 21.4201L14.2126 19.1306C14.4481 18.8869 14.7725 18.7493 15.1114 18.7493H18.2498V15.6109C18.2498 15.272 18.3874 14.9476 18.6311 14.7121L20.9206 12.4993L18.6311 10.2865C18.3874 10.051 18.2498 9.72658 18.2498 9.38768V6.24928H15.1114C14.7725 6.24928 14.4481 6.11167 14.2126 5.86798L11.9998 3.57848ZM11.101 2.35005C11.5923 1.84165 12.4072 1.84165 12.8986 2.35005L15.2174 4.74928H18.4998C19.1901 4.74928 19.7498 5.30893 19.7498 5.99928V9.28162L22.149 11.6005C22.6574 12.0918 22.6574 12.9067 22.149 13.3981L19.7498 15.7169V18.9993C19.7498 19.6896 19.1901 20.2493 18.4998 20.2493H15.2174L12.8986 22.6485C12.4072 23.1569 11.5923 23.1569 11.101 22.6485L8.7821 20.2493H5.49977C4.80942 20.2493 4.24977 19.6896 4.24977 18.9993V15.717L1.85054 13.3981C1.34214 12.9067 1.34214 12.0918 1.85054 11.6005L4.24977 9.28162V5.99928C4.24977 5.30893 4.80942 4.74928 5.49977 4.74928H8.7821L11.101 2.35005Z" fill="#015E83"/>
<path fill-rule="evenodd" clip-rule="evenodd" d="M7.24977 12.4993C7.24977 9.87593 9.37642 7.74928 11.9998 7.74928C14.6231 7.74928 16.7498 9.87593 16.7498 12.4993C16.7498 15.1226 14.6231 17.2493 11.9998 17.2493C9.37642 17.2493 7.24977 15.1226 7.24977 12.4993ZM11.9998 9.24928C10.2048 9.24928 8.74977 10.7044 8.74977 12.4993C8.74977 14.2942 10.2048 15.7493 11.9998 15.7493C13.7947 15.7493 15.2498 14.2942 15.2498 12.4993C15.2498 10.7044 13.7947 9.24928 11.9998 9.24928Z" fill="#015E83"/>
</svg>
