<svg width="24" height="25" viewBox="0 0 24 25" fill="none" xmlns="http://www.w3.org/2000/svg">
<path fill-rule="evenodd" clip-rule="evenodd" d="M7.06452 7.00617C7.06452 4.24134 9.27421 2 12 2C14.7258 2 16.9355 4.24134 16.9355 7.00617C16.9355 9.771 14.7258 12.0123 12 12.0123C9.27421 12.0123 7.06452 9.771 7.06452 7.00617ZM12 3.76688C10.2363 3.76688 8.80645 5.21716 8.80645 7.00617C8.80645 8.79518 10.2363 10.2455 12 10.2455C13.7637 10.2455 15.1935 8.79518 15.1935 7.00617C15.1935 5.21716 13.7637 3.76688 12 3.76688Z" fill="#015E83"/>
<path fill-rule="evenodd" clip-rule="evenodd" d="M7.35484 15.5461C5.91177 15.5461 4.74194 16.7327 4.74194 18.1964V19.5961C4.74194 19.6174 4.75716 19.6356 4.7779 19.639C9.56097 20.4311 14.439 20.4311 19.2221 19.639C19.2428 19.6356 19.2581 19.6174 19.2581 19.5961V18.1964C19.2581 16.7327 18.0882 15.5461 16.6452 15.5461H16.2493C16.2187 15.5461 16.1883 15.551 16.1592 15.5606L15.1541 15.8935C13.1046 16.5723 10.8954 16.5723 8.84592 15.8935L7.8408 15.5606C7.81171 15.551 7.78129 15.5461 7.75069 15.5461H7.35484ZM3 18.1964C3 15.7569 4.94973 13.7792 7.35484 13.7792H7.75069C7.96494 13.7792 8.17784 13.8136 8.3815 13.881L9.38662 14.2139C11.0848 14.7764 12.9152 14.7764 14.6134 14.2139L15.6185 13.881C15.8222 13.8136 16.0351 13.7792 16.2493 13.7792H16.6452C19.0503 13.7792 21 15.7569 21 18.1964V19.5961C21 20.4834 20.3661 21.2399 19.5028 21.3828C14.5338 22.2057 9.46618 22.2057 4.49722 21.3828C3.63393 21.2399 3 20.4834 3 19.5961V18.1964Z" fill="#015E83"/>
</svg>
