<svg width="69" height="69" viewBox="0 0 69 69" fill="none" xmlns="http://www.w3.org/2000/svg">
<path fill-rule="evenodd" clip-rule="evenodd" d="M20.5161 18.9341C20.5161 11.1005 26.7769 4.75 34.5 4.75C42.2231 4.75 48.4839 11.1005 48.4839 18.9341C48.4839 26.7678 42.2231 33.1183 34.5 33.1183C26.7769 33.1183 20.5161 26.7678 20.5161 18.9341ZM34.5 9.75617C29.5027 9.75617 25.4516 13.8653 25.4516 18.9341C25.4516 24.003 29.5027 28.1121 34.5 28.1121C39.4973 28.1121 43.5484 24.003 43.5484 18.9341C43.5484 13.8653 39.4973 9.75617 34.5 9.75617Z" fill="#3BA549"/>
<path fill-rule="evenodd" clip-rule="evenodd" d="M21.3387 43.1306C17.25 43.1306 13.9355 46.4926 13.9355 50.6399V54.6057C13.9355 54.6661 13.9786 54.7176 14.0374 54.7273C27.5894 56.9716 41.4106 56.9716 54.9626 54.7273C55.0214 54.7176 55.0645 54.6661 55.0645 54.6057V50.6399C55.0645 46.4926 51.75 43.1306 47.6613 43.1306H46.5397C46.453 43.1306 46.3668 43.1445 46.2844 43.1718L43.4366 44.1151C37.6297 46.0383 31.3703 46.0383 25.5634 44.1151L22.7156 43.1718C22.6332 43.1445 22.547 43.1306 22.4603 43.1306H21.3387ZM9 50.6399C9 43.7278 14.5242 38.1245 21.3387 38.1245H22.4603C23.0673 38.1245 23.6705 38.2218 24.2476 38.4129L27.0954 39.3562C31.9068 40.9497 37.0932 40.9497 41.9046 39.3562L44.7524 38.4129C45.3295 38.2218 45.9327 38.1245 46.5397 38.1245H47.6613C54.4758 38.1245 60 43.7278 60 50.6399V54.6057C60 57.1196 58.2039 59.263 55.7579 59.6681C41.6792 61.9995 27.3208 61.9995 13.2421 59.6681C10.7961 59.263 9 57.1196 9 54.6057V50.6399Z" fill="#3BA549"/>
</svg>
