<svg width="69" height="69" viewBox="0 0 69 69" fill="none" xmlns="http://www.w3.org/2000/svg">
<path fill-rule="evenodd" clip-rule="evenodd" d="M48.3125 4.75C49.1579 4.75 49.9686 5.08583 50.5664 5.6836C51.1642 6.28137 51.5 7.09212 51.5 7.9375V13.25H60C61.1272 13.25 62.2082 13.6978 63.0052 14.4948C63.8022 15.2918 64.25 16.3728 64.25 17.5V60C64.25 61.1272 63.8022 62.2082 63.0052 63.0052C62.2082 63.8022 61.1272 64.25 60 64.25H9C7.87283 64.25 6.79183 63.8022 5.9948 63.0052C5.19777 62.2082 4.75 61.1272 4.75 60V17.5C4.75 16.3728 5.19777 15.2918 5.9948 14.4948C6.79183 13.6978 7.87283 13.25 9 13.25H17.5V7.9375C17.5 7.09212 17.8358 6.28137 18.4336 5.6836C19.0314 5.08583 19.8421 4.75 20.6875 4.75C21.5329 4.75 22.3436 5.08583 22.9414 5.6836C23.5392 6.28137 23.875 7.09212 23.875 7.9375V13.25H45.125V7.9375C45.125 7.09212 45.4608 6.28137 46.0586 5.6836C46.6564 5.08583 47.4671 4.75 48.3125 4.75ZM11.125 32.375V57.875H57.875V32.375H11.125ZM11.125 26H57.875V19.625H11.125V26ZM44.19 38.6225C44.7869 39.2202 45.1222 40.0303 45.1222 40.875C45.1222 41.7197 44.7869 42.5298 44.19 43.1275L34.6275 52.69C34.0298 53.2869 33.2197 53.6222 32.375 53.6222C31.5303 53.6222 30.7202 53.2869 30.1225 52.69L24.81 47.3775C24.4968 47.0857 24.2456 46.7338 24.0714 46.3428C23.8972 45.9518 23.8035 45.5297 23.796 45.1017C23.7884 44.6737 23.8672 44.2486 24.0275 43.8517C24.1878 43.4548 24.4264 43.0943 24.7291 42.7916C25.0318 42.4889 25.3923 42.2503 25.7892 42.09C26.1861 41.9297 26.6112 41.8509 27.0392 41.8585C27.4672 41.866 27.8893 41.9597 28.2803 42.1339C28.6713 42.3081 29.0232 42.5593 29.315 42.8725L32.375 45.9325L39.685 38.6225C40.2827 38.0256 41.0928 37.6903 41.9375 37.6903C42.7822 37.6903 43.5923 38.0256 44.19 38.6225Z" fill="#3BA549"/>
</svg>
