<svg width="69" height="69" viewBox="0 0 69 69" fill="none" xmlns="http://www.w3.org/2000/svg">
<path d="M18.7148 7.337C19.4865 6.45279 19.3953 5.11041 18.5111 4.33871C17.6269 3.56702 16.2845 3.65824 15.5128 4.54245L11.8527 8.73627C9.77653 11.1152 8.60288 14.1483 8.53704 17.305L8.37645 25.0051C8.35198 26.1784 9.28333 27.1495 10.4567 27.1739C11.63 27.1984 12.6011 26.267 12.6255 25.0937L12.7861 17.3937C12.8312 15.2338 13.6342 13.1585 15.0547 11.5308L18.7148 7.337Z" fill="#3BA549"/>
<path fill-rule="evenodd" clip-rule="evenodd" d="M18.1714 22.319C18.565 16.027 23.7828 11.1253 30.0872 11.1253H31.6665V9.00027C31.6665 7.43546 32.9351 6.16694 34.4999 6.16694C36.0647 6.16694 37.3332 7.43546 37.3332 9.00027V11.1253H38.9125C45.2169 11.1253 50.4347 16.027 50.8283 22.319L51.4545 32.3305C51.6932 36.1476 52.9747 39.8259 55.1594 42.9651C57.1333 45.8014 55.376 49.7187 51.945 50.1304L42.2915 51.2888V54.3336C42.2915 58.6368 38.8031 62.1253 34.4999 62.1253C30.1966 62.1253 26.7082 58.6368 26.7082 54.3336V51.2889L17.0547 50.1304C13.6237 49.7187 11.8664 45.8014 13.8403 42.9651C16.025 39.8259 17.3065 36.1476 17.5452 32.3305L18.1714 22.319ZM30.0872 15.3753C26.027 15.3753 22.6666 18.5321 22.4131 22.5843L21.787 32.5958C21.4997 37.189 19.9576 41.6154 17.3287 45.3928C17.186 45.5978 17.313 45.8809 17.561 45.9107L28.1511 47.1815C32.3685 47.6876 36.6312 47.6876 40.8486 47.1815L51.4387 45.9107C51.6867 45.8809 51.8137 45.5978 51.671 45.3928C49.0421 41.6154 47.5 37.189 47.2128 32.5958L46.5866 22.5843C46.3331 18.5321 42.9727 15.3753 38.9125 15.3753H30.0872ZM34.4999 57.8753C32.5439 57.8753 30.9582 56.2896 30.9582 54.3336V52.2086H38.0415V54.3336C38.0415 56.2896 36.4559 57.8753 34.4999 57.8753Z" fill="#3BA549"/>
<path d="M50.4886 4.33871C49.6044 5.11041 49.5132 6.45279 50.2849 7.337L53.945 11.5308C55.3655 13.1585 56.1686 15.2338 56.2136 17.3937L56.3742 25.0937C56.3987 26.267 57.3697 27.1984 58.5431 27.1739C59.7164 27.1495 60.6478 26.1784 60.6233 25.0051L60.4627 17.305C60.3969 14.1483 59.2232 11.1152 57.147 8.73627L53.4869 4.54245C52.7152 3.65824 51.3728 3.56702 50.4886 4.33871Z" fill="#3BA549"/>
</svg>
