<svg width="69" height="69" viewBox="0 0 69 69" fill="none" xmlns="http://www.w3.org/2000/svg">
<path d="M51.5 6.16675V11.8334M17.5 6.16675V11.8334" stroke="#3BA549" stroke-width="4" stroke-linecap="round" stroke-linejoin="round"/>
<path d="M34.4871 37.3333H34.5126M34.4871 48.6666H34.5126M45.8077 37.3333H45.8332M23.1665 37.3333H23.1919M23.1665 48.6666H23.1919" stroke="#3BA549" stroke-width="6" stroke-linecap="round" stroke-linejoin="round"/>
<path d="M10.4165 23.1667H58.5832" stroke="#3BA549" stroke-width="4" stroke-linecap="round" stroke-linejoin="round"/>
<path d="M7.5835 35.1891C7.5835 22.8435 7.5835 16.6706 11.1312 12.8353C14.6788 9 20.3887 9 31.8085 9H37.1918C48.6116 9 54.3216 9 57.8692 12.8353C61.4168 16.6706 61.4168 22.8435 61.4168 35.1891V36.6443C61.4168 48.9899 61.4168 55.1626 57.8692 58.9981C54.3216 62.8333 48.6116 62.8333 37.1918 62.8333H31.8085C20.3887 62.8333 14.6788 62.8333 11.1312 58.9981C7.5835 55.1626 7.5835 48.9899 7.5835 36.6443V35.1891Z" stroke="#3BA549" stroke-width="4" stroke-linecap="round" stroke-linejoin="round"/>
<path d="M9 23.1667H60" stroke="#3BA549" stroke-width="4" stroke-linecap="round" stroke-linejoin="round"/>
</svg>
