<svg width="69" height="69" viewBox="0 0 69 69" fill="none" xmlns="http://www.w3.org/2000/svg">
<path d="M61.1615 33.3101L35.6615 7.81008C34.6415 6.79008 33.2248 6.16675 31.6665 6.16675H11.8332C8.7165 6.16675 6.1665 8.71675 6.1665 11.8334V31.6667C6.1665 33.2251 6.78984 34.6418 7.83817 35.6901L33.3382 61.1901C34.3582 62.2101 35.7748 62.8334 37.3332 62.8334C38.8915 62.8334 40.3082 62.2101 41.3282 61.1618L61.1615 41.3284C62.2098 40.3084 62.8332 38.8918 62.8332 37.3334C62.8332 35.7751 62.1815 34.3301 61.1615 33.3101ZM37.3332 57.1951L11.8332 31.6667V11.8334H31.6665V11.8051L57.1665 37.3051L37.3332 57.1951Z" fill="#3BA549"/>
<path d="M18.9165 23.1667C21.2637 23.1667 23.1665 21.264 23.1665 18.9167C23.1665 16.5695 21.2637 14.6667 18.9165 14.6667C16.5693 14.6667 14.6665 16.5695 14.6665 18.9167C14.6665 21.264 16.5693 23.1667 18.9165 23.1667Z" fill="#3BA549"/>
</svg>
