<svg width="40" height="40" viewBox="0 0 40 40" fill="none" xmlns="http://www.w3.org/2000/svg">
<path d="M8.75 15C7.51387 15 6.3055 14.6334 5.27769 13.9467C4.24988 13.2599 3.4488 12.2838 2.97576 11.1418C2.50271 9.99974 2.37894 8.74307 2.62009 7.53069C2.86125 6.31831 3.45651 5.20466 4.33059 4.33059C5.20466 3.45651 6.31831 2.86125 7.53069 2.62009C8.74307 2.37894 9.99974 2.50271 11.1418 2.97576C12.2838 3.4488 13.2599 4.24988 13.9467 5.27769C14.6334 6.3055 15 7.51387 15 8.75H12.5C12.5 8.00832 12.2801 7.2833 11.868 6.66661C11.456 6.04993 10.8703 5.56928 10.1851 5.28545C9.49984 5.00163 8.74584 4.92736 8.01841 5.07206C7.29099 5.21675 6.6228 5.57391 6.09835 6.09835C5.57391 6.6228 5.21675 7.29099 5.07206 8.01841C4.92736 8.74584 5.00163 9.49984 5.28545 10.1851C5.56928 10.8703 6.04993 11.456 6.66661 11.868C7.2833 12.2801 8.00832 12.5 8.75 12.5V15ZM31.25 15V12.5C31.9917 12.5 32.7167 12.2801 33.3334 11.868C33.9501 11.456 34.4307 10.8703 34.7146 10.1851C34.9984 9.49984 35.0726 8.74584 34.9279 8.01841C34.7833 7.29099 34.4261 6.6228 33.9017 6.09835C33.3772 5.57391 32.709 5.21675 31.9816 5.07206C31.2542 4.92736 30.5002 5.00163 29.8149 5.28545C29.1297 5.56928 28.544 6.04993 28.132 6.66661C27.7199 7.2833 27.5 8.00832 27.5 8.75H25C25 7.51387 25.3666 6.3055 26.0533 5.27769C26.7401 4.24988 27.7162 3.4488 28.8582 2.97576C30.0003 2.50271 31.2569 2.37894 32.4693 2.62009C33.6817 2.86125 34.7953 3.45651 35.6694 4.33059C36.5435 5.20466 37.1388 6.31831 37.3799 7.53069C37.6211 8.74307 37.4973 9.99974 37.0243 11.1418C36.5512 12.2838 35.7501 13.2599 34.7223 13.9467C33.6945 14.6334 32.4861 15 31.25 15ZM8.75 37.5C7.0924 37.5 5.50269 36.8415 4.33059 35.6694C3.15848 34.4973 2.5 32.9076 2.5 31.25C2.5 29.5924 3.15848 28.0027 4.33059 26.8306C5.50269 25.6585 7.0924 25 8.75 25V27.5C8.00832 27.5 7.2833 27.7199 6.66661 28.132C6.04993 28.544 5.56928 29.1297 5.28545 29.8149C5.00163 30.5002 4.92736 31.2542 5.07206 31.9816C5.21675 32.709 5.57391 33.3772 6.09835 33.9017C6.6228 34.4261 7.29099 34.7833 8.01841 34.9279C8.74584 35.0726 9.49984 34.9984 10.1851 34.7146C10.8703 34.4307 11.456 33.9501 11.868 33.3334C12.2801 32.7167 12.5 31.9917 12.5 31.25H15C14.998 32.907 14.3389 34.4956 13.1672 35.6672C11.9956 36.8389 10.407 37.498 8.75 37.5ZM31.25 37.5C29.593 37.498 28.0044 36.8389 26.8328 35.6672C25.6611 34.4956 25.002 32.907 25 31.25H27.5C27.5 31.9917 27.7199 32.7167 28.132 33.3334C28.544 33.9501 29.1297 34.4307 29.8149 34.7146C30.5002 34.9984 31.2542 35.0726 31.9816 34.9279C32.709 34.7833 33.3772 34.4261 33.9017 33.9017C34.4261 33.3772 34.7833 32.709 34.9279 31.9816C35.0726 31.2542 34.9984 30.5002 34.7146 29.8149C34.4307 29.1297 33.9501 28.544 33.3334 28.132C32.7167 27.7199 31.9917 27.5 31.25 27.5V25C32.9076 25 34.4973 25.6585 35.6694 26.8306C36.8415 28.0027 37.5 29.5924 37.5 31.25C37.5 32.9076 36.8415 34.4973 35.6694 35.6694C34.4973 36.8415 32.9076 37.5 31.25 37.5Z" fill="#015E83"/>
<path d="M25 23.2322V16.7672L32.1337 9.63348C32.2531 9.51818 32.3483 9.38025 32.4139 9.22774C32.4794 9.07524 32.5138 8.91121 32.5153 8.74524C32.5167 8.57926 32.4851 8.41466 32.4223 8.26104C32.3594 8.10742 32.2666 7.96786 32.1492 7.85049C32.0319 7.73313 31.8923 7.64031 31.7387 7.57746C31.585 7.51461 31.4204 7.48298 31.2545 7.48442C31.0885 7.48586 30.9245 7.52035 30.772 7.58586C30.6195 7.65137 30.4815 7.7466 30.3662 7.86599L24.7412 13.491C24.4264 12.4795 23.7964 11.5953 22.9433 10.9673C22.0902 10.3393 21.0587 10.0006 19.9994 10.0006C18.94 10.0006 17.9085 10.3393 17.0554 10.9673C16.2023 11.5953 15.5723 12.4795 15.2575 13.491L9.63373 7.86599C9.39932 7.63165 9.08143 7.5 8.74998 7.5C8.41852 7.5 8.10064 7.63165 7.86623 7.86599C7.63189 8.1004 7.50024 8.41828 7.50024 8.74974C7.50024 9.08119 7.63189 9.39908 7.86623 9.63348L15 16.7672V23.2322L7.86623 30.366C7.63189 30.6004 7.50024 30.9183 7.50024 31.2497C7.50024 31.5812 7.63189 31.8991 7.86623 32.1335C8.10064 32.3678 8.41852 32.4995 8.74998 32.4995C9.08143 32.4995 9.39932 32.3678 9.63373 32.1335L15.2587 26.5085C15.5735 27.5199 16.2035 28.4042 17.0566 29.0322C17.9097 29.6601 18.9413 29.9988 20.0006 29.9988C21.0599 29.9988 22.0915 29.6601 22.9446 29.0322C23.7977 28.4042 24.4277 27.5199 24.7425 26.5085L30.3675 32.1335C30.6032 32.3612 30.919 32.4872 31.2467 32.4843C31.5745 32.4815 31.888 32.35 32.1197 32.1183C32.3515 31.8865 32.483 31.573 32.4858 31.2452C32.4887 30.9175 32.3627 30.6017 32.135 30.366L25 23.2322ZM22.5 24.9997C22.5 25.6628 22.2366 26.2987 21.7677 26.7675C21.2989 27.2363 20.663 27.4997 20 27.4997C19.3369 27.4997 18.7011 27.2363 18.2322 26.7675C17.7634 26.2987 17.5 25.6628 17.5 24.9997V14.9997C17.5 14.3367 17.7634 13.7008 18.2322 13.232C18.7011 12.7631 19.3369 12.4997 20 12.4997C20.663 12.4997 21.2989 12.7631 21.7677 13.232C22.2366 13.7008 22.5 14.3367 22.5 14.9997V24.9997Z" fill="#015E83"/>
</svg>
