<svg width="33" height="32" viewBox="0 0 33 32" fill="none" xmlns="http://www.w3.org/2000/svg">
<path d="M22.5745 17.2073L21.9678 17.8113C21.9678 17.8113 20.5238 19.246 16.5838 15.3287C12.6438 11.4113 14.0878 9.97665 14.0878 9.97665L14.4692 9.59532C15.4118 8.65932 15.5012 7.15532 14.6785 6.05665L12.9985 3.81265C11.9798 2.45265 10.0132 2.27266 8.84651 3.43266L6.75317 5.51266C6.17584 6.08865 5.78917 6.83265 5.83584 7.65932C5.95584 9.77532 6.91317 14.326 12.2518 19.6353C17.9145 25.2647 23.2278 25.4887 25.3998 25.286C26.0878 25.222 26.6852 24.8727 27.1665 24.3927L29.0598 22.51C30.3398 21.2393 29.9798 19.0593 28.3425 18.17L25.7958 16.7847C24.7212 16.202 23.4145 16.3727 22.5745 17.2073Z" fill="#015E83"/>
</svg>
