<svg width="48" height="52" viewBox="0 0 48 52" fill="none" xmlns="http://www.w3.org/2000/svg">
<path d="M10 33.9688H6V12.0547C6 11.5263 6.21071 11.0196 6.58579 10.646C6.96086 10.2724 7.46957 10.0625 8 10.0625H26V33.9688M18 33.9688H30M38 33.9688H42V22.0156M42 22.0156H26M42 22.0156L36 12.0547H26" stroke="#015E83" stroke-width="3" stroke-linecap="round" stroke-linejoin="round"/>
<path d="M10 37.4844C10 38.5411 10.4214 39.5545 11.1716 40.3018C11.9217 41.049 12.9391 41.4688 14 41.4688C15.0609 41.4688 16.0783 41.049 16.8284 40.3018C17.5786 39.5545 18 38.5411 18 37.4844C18 36.4277 17.5786 35.4142 16.8284 34.667C16.0783 33.9198 15.0609 33.5 14 33.5C12.9391 33.5 11.9217 33.9198 11.1716 34.667C10.4214 35.4142 10 36.4277 10 37.4844ZM30 37.4844C30 38.5411 30.4214 39.5545 31.1716 40.3018C31.9217 41.049 32.9391 41.4688 34 41.4688C35.0609 41.4688 36.0783 41.049 36.8284 40.3018C37.5786 39.5545 38 38.5411 38 37.4844C38 36.4277 37.5786 35.4142 36.8284 34.667C36.0783 33.9198 35.0609 33.5 34 33.5C32.9391 33.5 31.9217 33.9198 31.1716 34.667C30.4214 35.4142 30 36.4277 30 37.4844Z" stroke="#015E83" stroke-width="3" stroke-linecap="round" stroke-linejoin="round"/>
</svg>
