<svg width="69" height="69" viewBox="0 0 69 69" fill="none" xmlns="http://www.w3.org/2000/svg">
<path d="M51.5 6.1665V11.8332M17.5 6.1665V11.8332" stroke="#0F8054" stroke-width="4" stroke-linecap="round" stroke-linejoin="round"/>
<path d="M34.4873 37.3335H34.5128M34.4873 48.6668H34.5128M45.8079 37.3335H45.8334M23.1667 37.3335H23.1922M23.1667 48.6668H23.1922" stroke="#0F8054" stroke-width="6" stroke-linecap="round" stroke-linejoin="round"/>
<path d="M10.4167 23.1665H58.5834" stroke="#0F8054" stroke-width="4" stroke-linecap="round" stroke-linejoin="round"/>
<path d="M7.58325 35.1891C7.58325 22.8435 7.58325 16.6706 11.1309 12.8353C14.6786 9 20.3885 9 31.8083 9H37.1916C48.6113 9 54.3214 9 57.869 12.8353C61.4166 16.6706 61.4166 22.8435 61.4166 35.1891V36.6443C61.4166 48.9899 61.4166 55.1626 57.869 58.9981C54.3214 62.8333 48.6113 62.8333 37.1916 62.8333H31.8083C20.3885 62.8333 14.6786 62.8333 11.1309 58.9981C7.58325 55.1626 7.58325 48.9899 7.58325 36.6443V35.1891Z" stroke="#0F8054" stroke-width="4" stroke-linecap="round" stroke-linejoin="round"/>
<path d="M9 23.1665H60" stroke="#0F8054" stroke-width="4" stroke-linecap="round" stroke-linejoin="round"/>
</svg>
