<svg width="24" height="25" viewBox="0 0 24 25" fill="none" xmlns="http://www.w3.org/2000/svg">
<path d="M7.28924 5.40761C10.4239 5.13513 13.5763 5.13512 16.7109 5.40761L18.2211 5.53889C19.2265 5.62629 20.0876 6.22596 20.5337 7.08374C20.5908 7.19347 20.548 7.32633 20.4428 7.39144L14.1769 11.2704C12.833 12.1023 11.1385 12.1197 9.77778 11.3157L3.46995 7.58833C3.36804 7.52811 3.32126 7.40415 3.36719 7.29505C3.77535 6.32548 4.69298 5.6333 5.77901 5.5389L7.28924 5.40761Z" fill="white"/>
<path d="M3.36206 9.26688C3.20609 9.17472 3.00709 9.2739 2.98891 9.45414C2.73518 11.9698 2.79659 14.5092 3.17314 17.0133C3.37166 18.3334 4.44907 19.3455 5.77901 19.4611L7.28924 19.5924C10.4239 19.8649 13.5763 19.8649 16.7109 19.5924L18.2211 19.4611C19.5511 19.3455 20.6285 18.3334 20.827 17.0133C21.2145 14.4363 21.2683 11.8217 20.9882 9.23428C20.9686 9.05276 20.7662 8.95541 20.611 9.05151L14.9664 12.5458C13.1482 13.6713 10.8557 13.6949 9.01468 12.6071L3.36206 9.26688Z" fill="white"/>
</svg>
