<svg width="44" height="30" viewBox="0 0 44 30" fill="none" xmlns="http://www.w3.org/2000/svg">
<g clip-path="url(#clip0_2844_1304)">
<path d="M19.101 26.691V18.711H16.627V15.044H19.101V13.464C19.101 9.37901 20.949 7.48601 24.959 7.48601C25.36 7.48601 25.914 7.52801 26.427 7.58901C26.8112 7.62855 27.1924 7.69369 27.568 7.78401V11.109C27.3509 11.0888 27.133 11.0767 26.915 11.073C26.6707 11.0667 26.4264 11.0637 26.182 11.064C25.475 11.064 24.923 11.16 24.507 11.373C24.2273 11.5133 23.9922 11.7287 23.828 11.995C23.57 12.415 23.454 12.99 23.454 13.747V15.044H27.373L26.987 17.147L26.7 18.711H23.454V26.956C29.396 26.238 34 21.179 34 15.044C34 8.41701 28.627 3.04401 22 3.04401C15.373 3.04401 10 8.41701 10 15.044C10 20.672 13.874 25.394 19.101 26.691Z" fill="white"/>
</g>
<defs>
<clipPath id="clip0_2844_1304">
<rect width="24" height="24" fill="white" transform="translate(10 3)"/>
</clipPath>
</defs>
</svg>
