<svg width="26" height="28" viewBox="0 0 26 28" fill="none" xmlns="http://www.w3.org/2000/svg">
<path d="M5.57189 2.21713C5.93504 1.80102 5.89212 1.16932 5.47601 0.806166C5.05991 0.443016 4.4282 0.485942 4.06505 0.902043L2.34264 2.8756C1.36563 3.99508 0.81332 5.42243 0.782338 6.90797L0.706765 10.5315C0.695249 11.0837 1.13353 11.5406 1.6857 11.5521C2.23786 11.5637 2.69481 11.1254 2.70633 10.5732L2.7819 6.94967C2.8031 5.93325 3.181 4.95664 3.84948 4.19069L5.57189 2.21713Z" fill="#F79721"/>
<path fill-rule="evenodd" clip-rule="evenodd" d="M5.31616 9.2675C5.50136 6.30652 7.95682 3.99984 10.9236 3.99984H11.6668V2.99984C11.6668 2.26346 12.2638 1.66651 13.0001 1.66651C13.7365 1.66651 14.3335 2.26346 14.3335 2.99984V3.99984H15.0767C18.0434 3.99984 20.4989 6.30652 20.6841 9.2675L20.9788 13.9788C21.0911 15.775 21.6942 17.506 22.7223 18.9833C23.6512 20.318 22.8242 22.1615 21.2096 22.3552L16.6668 22.9003V24.3332C16.6668 26.3582 15.0252 27.9998 13.0001 27.9998C10.9751 27.9998 9.33347 26.3582 9.33347 24.3332V22.9003L4.79063 22.3552C3.17606 22.1615 2.3491 20.318 3.27801 18.9833C4.30609 17.506 4.90914 15.775 5.02149 13.9788L5.31616 9.2675ZM10.9236 5.99984C9.01291 5.99984 7.43153 7.4854 7.31226 9.39234L7.01759 14.1036C6.8824 16.2651 6.15672 18.3481 4.91959 20.1257C4.85245 20.2222 4.91222 20.3554 5.02893 20.3695L10.0125 20.9675C11.9971 21.2056 14.0031 21.2056 15.9878 20.9675L20.9713 20.3695C21.088 20.3554 21.1478 20.2222 21.0807 20.1257C19.8435 18.3481 19.1179 16.2651 18.9827 14.1036L18.688 9.39234C18.5687 7.4854 16.9874 5.99984 15.0767 5.99984H10.9236ZM13.0001 25.9998C12.0797 25.9998 11.3335 25.2536 11.3335 24.3332V23.3332H14.6668V24.3332C14.6668 25.2536 13.9206 25.9998 13.0001 25.9998Z" fill="#F79721"/>
<path d="M20.5243 0.806166C20.1082 1.16932 20.0652 1.80102 20.4284 2.21713L22.1508 4.19069C22.8193 4.95664 23.1972 5.93325 23.2184 6.94967L23.2939 10.5732C23.3055 11.1254 23.7624 11.5637 24.3146 11.5521C24.8667 11.5406 25.305 11.0837 25.2935 10.5315L25.2179 6.90797C25.187 5.42243 24.6346 3.99508 23.6576 2.8756L21.9352 0.902043C21.5721 0.485942 20.9404 0.443016 20.5243 0.806166Z" fill="#F79721"/>
</svg>
