<svg width="61" height="61" viewBox="0 0 61 61" fill="none" xmlns="http://www.w3.org/2000/svg">
<path fill-rule="evenodd" clip-rule="evenodd" d="M44.3125 0.75C45.1579 0.75 45.9686 1.08583 46.5664 1.6836C47.1642 2.28137 47.5 3.09212 47.5 3.9375V9.25H56C57.1272 9.25 58.2082 9.69777 59.0052 10.4948C59.8022 11.2918 60.25 12.3728 60.25 13.5V56C60.25 57.1272 59.8022 58.2082 59.0052 59.0052C58.2082 59.8022 57.1272 60.25 56 60.25H5C3.87283 60.25 2.79183 59.8022 1.9948 59.0052C1.19777 58.2082 0.75 57.1272 0.75 56V13.5C0.75 12.3728 1.19777 11.2918 1.9948 10.4948C2.79183 9.69777 3.87283 9.25 5 9.25H13.5V3.9375C13.5 3.09212 13.8358 2.28137 14.4336 1.6836C15.0314 1.08583 15.8421 0.75 16.6875 0.75C17.5329 0.75 18.3436 1.08583 18.9414 1.6836C19.5392 2.28137 19.875 3.09212 19.875 3.9375V9.25H41.125V3.9375C41.125 3.09212 41.4608 2.28137 42.0586 1.6836C42.6564 1.08583 43.4671 0.75 44.3125 0.75ZM7.125 28.375V53.875H53.875V28.375H7.125ZM7.125 22H53.875V15.625H7.125V22ZM40.19 34.6225C40.7869 35.2202 41.1222 36.0303 41.1222 36.875C41.1222 37.7197 40.7869 38.5298 40.19 39.1275L30.6275 48.69C30.0298 49.2869 29.2197 49.6222 28.375 49.6222C27.5303 49.6222 26.7202 49.2869 26.1225 48.69L20.81 43.3775C20.4968 43.0857 20.2456 42.7338 20.0714 42.3428C19.8972 41.9518 19.8035 41.5297 19.796 41.1017C19.7884 40.6737 19.8672 40.2486 20.0275 39.8517C20.1878 39.4548 20.4264 39.0943 20.7291 38.7916C21.0318 38.4889 21.3923 38.2503 21.7892 38.09C22.1861 37.9297 22.6112 37.8509 23.0392 37.8585C23.4672 37.866 23.8893 37.9597 24.2803 38.1339C24.6713 38.3081 25.0232 38.5593 25.315 38.8725L28.375 41.9325L35.685 34.6225C36.2827 34.0256 37.0928 33.6903 37.9375 33.6903C38.7822 33.6903 39.5923 34.0256 40.19 34.6225Z" fill="#3BA549"/>
</svg>
