<svg width="45" height="30" viewBox="0 0 45 30" fill="none" xmlns="http://www.w3.org/2000/svg">
<g clip-path="url(#clip0_2844_1310)">
<path d="M10 4.719C10 3.7695 10.789 3 11.7625 3H32.2375C33.211 3 34 3.7695 34 4.719V25.281C34 26.2305 33.211 27 32.2375 27H11.7625C10.789 27 10 26.2305 10 25.281V4.719ZM17.4145 23.091V12.2535H13.813V23.091H17.4145ZM15.6145 10.773C16.87 10.773 17.6515 9.942 17.6515 8.901C17.629 7.8375 16.8715 7.029 15.6385 7.029C14.4055 7.029 13.6 7.839 13.6 8.901C13.6 9.942 14.3815 10.773 15.5905 10.773H15.6145ZM22.9765 23.091V17.0385C22.9765 16.7145 23.0005 16.3905 23.0965 16.1595C23.356 15.513 23.9485 14.8425 24.9445 14.8425C26.248 14.8425 26.7685 15.8355 26.7685 17.2935V23.091H30.37V16.875C30.37 13.545 28.594 11.997 26.224 11.997C24.313 11.997 23.4565 13.047 22.9765 13.7865V13.824H22.9525L22.9765 13.7865V12.2535H19.3765C19.4215 13.2705 19.3765 23.091 19.3765 23.091H22.9765Z" fill="white"/>
</g>
<defs>
<clipPath id="clip0_2844_1310">
<rect width="24" height="24" fill="white" transform="translate(10 3)"/>
</clipPath>
</defs>
</svg>
