<svg width="209" height="45" viewBox="0 0 209 45" fill="none" xmlns="http://www.w3.org/2000/svg">
<path d="M9 12.5H25C26.1 12.5 27 13.4 27 14.5V20.5H15V30.5H19.55C19.73 30.8 19.91 31.08 20.09 31.34C20.38 31.77 20.66 32.16 20.92 32.5H9C7.9 32.5 7 31.6 7 30.5V14.5C7 13.4 7.9 12.5 9 12.5ZM13 14.5H9V24.5H13V14.5ZM9 26.5V30.5H13V26.5H9ZM15 18.5H25V14.5H15V18.5ZM23.5 32.5C23.5 32.5 22.92 31.85 22.23 30.91C22.14 30.78 22.04 30.64 21.94 30.5C21 29.16 20 27.39 20 26C20 24.1 21.6 22.5 23.5 22.5C24.03 22.5 24.54 22.63 25 22.85C26.17 23.42 27 24.63 27 26C27 27.54 25.77 29.54 24.77 30.91C24.08 31.85 23.5 32.5 23.5 32.5ZM22.3 26.1C22.3 26.7 22.8 27.3 23.5 27.3C24.2 27.3 24.8 26.7 24.7 26.1C24.7 25.5 24.1 24.9 23.5 24.9C22.9 24.9 22.3 25.4 22.3 26.1Z" fill="#3BA549"/>
<path d="M40.692 28.5V15.9H43.032V26.52H49.62V28.5H40.692ZM55.4835 28.626C54.4995 28.626 53.6235 28.416 52.8555 27.996C52.0875 27.564 51.4815 26.976 51.0375 26.232C50.5935 25.488 50.3715 24.642 50.3715 23.694C50.3715 22.734 50.5935 21.888 51.0375 21.156C51.4815 20.412 52.0875 19.83 52.8555 19.41C53.6235 18.99 54.4995 18.78 55.4835 18.78C56.4795 18.78 57.3615 18.99 58.1295 19.41C58.9095 19.83 59.5155 20.406 59.9475 21.138C60.3915 21.87 60.6135 22.722 60.6135 23.694C60.6135 24.642 60.3915 25.488 59.9475 26.232C59.5155 26.976 58.9095 27.564 58.1295 27.996C57.3615 28.416 56.4795 28.626 55.4835 28.626ZM55.4835 26.7C56.0355 26.7 56.5275 26.58 56.9595 26.34C57.3915 26.1 57.7275 25.752 57.9675 25.296C58.2195 24.84 58.3455 24.306 58.3455 23.694C58.3455 23.07 58.2195 22.536 57.9675 22.092C57.7275 21.636 57.3915 21.288 56.9595 21.048C56.5275 20.808 56.0415 20.688 55.5015 20.688C54.9495 20.688 54.4575 20.808 54.0255 21.048C53.6055 21.288 53.2695 21.636 53.0175 22.092C52.7655 22.536 52.6395 23.07 52.6395 23.694C52.6395 24.306 52.7655 24.84 53.0175 25.296C53.2695 25.752 53.6055 26.1 54.0255 26.34C54.4575 26.58 54.9435 26.7 55.4835 26.7ZM66.3831 28.626C65.3271 28.626 64.5111 28.356 63.9351 27.816C63.3591 27.264 63.0711 26.454 63.0711 25.386V16.764H65.3211V25.332C65.3211 25.788 65.4351 26.142 65.6631 26.394C65.9031 26.646 66.2331 26.772 66.6531 26.772C67.1571 26.772 67.5771 26.64 67.9131 26.376L68.5431 27.978C68.2791 28.194 67.9551 28.356 67.5711 28.464C67.1871 28.572 66.7911 28.626 66.3831 28.626ZM61.4871 20.76V18.96H67.8951V20.76H61.4871ZM74.5956 28.626C73.5276 28.626 72.5916 28.416 71.7876 27.996C70.9956 27.564 70.3776 26.976 69.9336 26.232C69.5016 25.488 69.2856 24.642 69.2856 23.694C69.2856 22.734 69.4956 21.888 69.9156 21.156C70.3476 20.412 70.9356 19.83 71.6796 19.41C72.4356 18.99 73.2936 18.78 74.2536 18.78C75.1896 18.78 76.0236 18.984 76.7556 19.392C77.4876 19.8 78.0636 20.376 78.4836 21.12C78.9036 21.864 79.1136 22.74 79.1136 23.748C79.1136 23.844 79.1076 23.952 79.0956 24.072C79.0956 24.192 79.0896 24.306 79.0776 24.414H71.0676V22.92H77.8896L77.0076 23.388C77.0196 22.836 76.9056 22.35 76.6656 21.93C76.4256 21.51 76.0956 21.18 75.6756 20.94C75.2676 20.7 74.7936 20.58 74.2536 20.58C73.7016 20.58 73.2156 20.7 72.7956 20.94C72.3876 21.18 72.0636 21.516 71.8236 21.948C71.5956 22.368 71.4816 22.866 71.4816 23.442V23.802C71.4816 24.378 71.6136 24.888 71.8776 25.332C72.1416 25.776 72.5136 26.118 72.9936 26.358C73.4736 26.598 74.0256 26.718 74.6496 26.718C75.1896 26.718 75.6756 26.634 76.1076 26.466C76.5396 26.298 76.9236 26.034 77.2596 25.674L78.4656 27.06C78.0336 27.564 77.4876 27.954 76.8276 28.23C76.1796 28.494 75.4356 28.626 74.5956 28.626ZM84.2448 28.626C83.4408 28.626 82.6668 28.524 81.9228 28.32C81.1908 28.104 80.6088 27.846 80.1768 27.546L81.0408 25.836C81.4728 26.112 81.9888 26.34 82.5888 26.52C83.1888 26.7 83.7888 26.79 84.3888 26.79C85.0968 26.79 85.6068 26.694 85.9188 26.502C86.2428 26.31 86.4048 26.052 86.4048 25.728C86.4048 25.464 86.2968 25.266 86.0808 25.134C85.8648 24.99 85.5828 24.882 85.2348 24.81C84.8868 24.738 84.4968 24.672 84.0648 24.612C83.6448 24.552 83.2188 24.474 82.7868 24.378C82.3668 24.27 81.9828 24.12 81.6348 23.928C81.2868 23.724 81.0048 23.454 80.7888 23.118C80.5728 22.782 80.4648 22.338 80.4648 21.786C80.4648 21.174 80.6388 20.646 80.9868 20.202C81.3348 19.746 81.8208 19.398 82.4448 19.158C83.0808 18.906 83.8308 18.78 84.6948 18.78C85.3428 18.78 85.9968 18.852 86.6568 18.996C87.3168 19.14 87.8628 19.344 88.2948 19.608L87.4308 21.318C86.9748 21.042 86.5128 20.856 86.0448 20.76C85.5888 20.652 85.1328 20.598 84.6768 20.598C83.9928 20.598 83.4828 20.7 83.1468 20.904C82.8228 21.108 82.6608 21.366 82.6608 21.678C82.6608 21.966 82.7688 22.182 82.9848 22.326C83.2008 22.47 83.4828 22.584 83.8308 22.668C84.1788 22.752 84.5628 22.824 84.9828 22.884C85.4148 22.932 85.8408 23.01 86.2608 23.118C86.6808 23.226 87.0648 23.376 87.4128 23.568C87.7728 23.748 88.0608 24.006 88.2768 24.342C88.4928 24.678 88.6008 25.116 88.6008 25.656C88.6008 26.256 88.4208 26.778 88.0608 27.222C87.7128 27.666 87.2148 28.014 86.5668 28.266C85.9188 28.506 85.1448 28.626 84.2448 28.626Z" fill="#454545"/>
</svg>
