<svg width="209" height="45" viewBox="0 0 209 45" fill="none" xmlns="http://www.w3.org/2000/svg">
<path d="M11.4288 12.9131C11.7012 12.601 11.669 12.1272 11.3569 11.8549C11.0448 11.5825 10.571 11.6147 10.2987 11.9268L9.00686 13.4069C8.2741 14.2466 7.85987 15.3171 7.83663 16.4312L7.77995 19.1489C7.77131 19.563 8.10003 19.9057 8.51415 19.9144C8.92827 19.923 9.27099 19.5943 9.27963 19.1802L9.3363 16.4625C9.3522 15.7002 9.63562 14.9677 10.137 14.3933L11.4288 12.9131Z" fill="#3BA549"/>
<path fill-rule="evenodd" clip-rule="evenodd" d="M11.237 18.2009C11.3759 15.9801 13.2175 14.2501 15.4426 14.2501H16V13.5001C16 12.9478 16.4477 12.5001 17 12.5001C17.5523 12.5001 18 12.9478 18 13.5001V14.2501H18.5574C20.7825 14.2501 22.6241 15.9801 22.763 18.2009L22.984 21.7343C23.0682 23.0815 23.5205 24.3798 24.2916 25.4877C24.9882 26.4888 24.368 27.8713 23.1571 28.0166L19.75 28.4255V29.5001C19.75 31.0189 18.5188 32.2501 17 32.2501C15.4812 32.2501 14.25 31.0189 14.25 29.5001V28.4255L10.8429 28.0166C9.63192 27.8713 9.0117 26.4888 9.70839 25.4877C10.4794 24.3798 10.9317 23.0815 11.016 21.7343L11.237 18.2009ZM15.4426 15.7501C14.0096 15.7501 12.8235 16.8643 12.7341 18.2945L12.5131 21.828C12.4117 23.4491 11.8674 25.0113 10.9396 26.3445C10.8892 26.4169 10.934 26.5168 11.0216 26.5273L14.7592 26.9759C16.2477 27.1545 17.7522 27.1545 19.2407 26.9759L22.9784 26.5273C23.0659 26.5168 23.1107 26.4169 23.0604 26.3445C22.1325 25.0113 21.5883 23.4491 21.4869 21.828L21.2659 18.2945C21.1764 16.8643 19.9904 15.7501 18.5574 15.7501H15.4426ZM17 30.7501C16.3096 30.7501 15.75 30.1905 15.75 29.5001V28.7501H18.25V29.5001C18.25 30.1905 17.6903 30.7501 17 30.7501Z" fill="#3BA549"/>
<path d="M22.6431 11.8549C22.331 12.1272 22.2988 12.601 22.5712 12.9131L23.863 14.3933C24.3643 14.9677 24.6478 15.7002 24.6637 16.4625L24.7203 19.1802C24.729 19.5943 25.0717 19.923 25.4858 19.9144C25.8999 19.9057 26.2287 19.563 26.22 19.1489L26.1633 16.4312C26.1401 15.3171 25.7259 14.2466 24.9931 13.4069L23.7013 11.9268C23.4289 11.6147 22.9552 11.5825 22.6431 11.8549Z" fill="#3BA549"/>
<path d="M40.692 28.5V15.9H42.618L50.52 25.602H49.566V15.9H51.888V28.5H49.962L42.06 18.798H43.014V28.5H40.692ZM59.3683 28.626C58.3843 28.626 57.5083 28.416 56.7403 27.996C55.9723 27.564 55.3663 26.976 54.9223 26.232C54.4783 25.488 54.2563 24.642 54.2563 23.694C54.2563 22.734 54.4783 21.888 54.9223 21.156C55.3663 20.412 55.9723 19.83 56.7403 19.41C57.5083 18.99 58.3843 18.78 59.3683 18.78C60.3643 18.78 61.2463 18.99 62.0143 19.41C62.7943 19.83 63.4003 20.406 63.8323 21.138C64.2763 21.87 64.4983 22.722 64.4983 23.694C64.4983 24.642 64.2763 25.488 63.8323 26.232C63.4003 26.976 62.7943 27.564 62.0143 27.996C61.2463 28.416 60.3643 28.626 59.3683 28.626ZM59.3683 26.7C59.9203 26.7 60.4123 26.58 60.8443 26.34C61.2763 26.1 61.6123 25.752 61.8523 25.296C62.1043 24.84 62.2303 24.306 62.2303 23.694C62.2303 23.07 62.1043 22.536 61.8523 22.092C61.6123 21.636 61.2763 21.288 60.8443 21.048C60.4123 20.808 59.9263 20.688 59.3863 20.688C58.8343 20.688 58.3423 20.808 57.9103 21.048C57.4903 21.288 57.1543 21.636 56.9023 22.092C56.6503 22.536 56.5243 23.07 56.5243 23.694C56.5243 24.306 56.6503 24.84 56.9023 25.296C57.1543 25.752 57.4903 26.1 57.9103 26.34C58.3423 26.58 58.8283 26.7 59.3683 26.7ZM70.2678 28.626C69.2118 28.626 68.3958 28.356 67.8198 27.816C67.2438 27.264 66.9558 26.454 66.9558 25.386V16.764H69.2058V25.332C69.2058 25.788 69.3198 26.142 69.5478 26.394C69.7878 26.646 70.1178 26.772 70.5378 26.772C71.0418 26.772 71.4618 26.64 71.7978 26.376L72.4278 27.978C72.1638 28.194 71.8398 28.356 71.4558 28.464C71.0718 28.572 70.6758 28.626 70.2678 28.626ZM65.3718 20.76V18.96H71.7798V20.76H65.3718ZM74.2787 28.5V18.888H76.5287V28.5H74.2787ZM75.4127 17.304C74.9927 17.304 74.6447 17.172 74.3687 16.908C74.1047 16.644 73.9727 16.326 73.9727 15.954C73.9727 15.57 74.1047 15.252 74.3687 15C74.6447 14.736 74.9927 14.604 75.4127 14.604C75.8327 14.604 76.1747 14.73 76.4387 14.982C76.7147 15.222 76.8527 15.528 76.8527 15.9C76.8527 16.296 76.7207 16.632 76.4567 16.908C76.1927 17.172 75.8447 17.304 75.4127 17.304ZM79.7879 28.5V18.348C79.7879 17.34 80.0819 16.536 80.6699 15.936C81.2699 15.324 82.1219 15.018 83.2259 15.018C83.6219 15.018 83.9939 15.06 84.3419 15.144C84.7019 15.228 85.0019 15.36 85.2419 15.54L84.6299 17.232C84.4619 17.1 84.2699 17.004 84.0539 16.944C83.8379 16.872 83.6159 16.836 83.3879 16.836C82.9199 16.836 82.5659 16.968 82.3259 17.232C82.0859 17.484 81.9659 17.868 81.9659 18.384V19.464L82.0379 20.472V28.5H79.7879ZM78.2039 20.76V18.96H84.6119V20.76H78.2039ZM86.1959 28.5V18.888H88.4459V28.5H86.1959ZM87.3299 17.304C86.9099 17.304 86.5619 17.172 86.2859 16.908C86.0219 16.644 85.8899 16.326 85.8899 15.954C85.8899 15.57 86.0219 15.252 86.2859 15C86.5619 14.736 86.9099 14.604 87.3299 14.604C87.7499 14.604 88.0919 14.73 88.3559 14.982C88.6319 15.222 88.7699 15.528 88.7699 15.9C88.7699 16.296 88.6379 16.632 88.3739 16.908C88.1099 17.172 87.7619 17.304 87.3299 17.304ZM95.8098 28.626C94.8018 28.626 93.9018 28.416 93.1098 27.996C92.3298 27.564 91.7178 26.976 91.2738 26.232C90.8298 25.488 90.6078 24.642 90.6078 23.694C90.6078 22.734 90.8298 21.888 91.2738 21.156C91.7178 20.412 92.3298 19.83 93.1098 19.41C93.9018 18.99 94.8018 18.78 95.8098 18.78C96.7458 18.78 97.5678 18.972 98.2758 19.356C98.9958 19.728 99.5418 20.28 99.9138 21.012L98.1858 22.02C97.8978 21.564 97.5438 21.228 97.1238 21.012C96.7158 20.796 96.2718 20.688 95.7918 20.688C95.2398 20.688 94.7418 20.808 94.2978 21.048C93.8538 21.288 93.5058 21.636 93.2538 22.092C93.0018 22.536 92.8758 23.07 92.8758 23.694C92.8758 24.318 93.0018 24.858 93.2538 25.314C93.5058 25.758 93.8538 26.1 94.2978 26.34C94.7418 26.58 95.2398 26.7 95.7918 26.7C96.2718 26.7 96.7158 26.592 97.1238 26.376C97.5438 26.16 97.8978 25.824 98.1858 25.368L99.9138 26.376C99.5418 27.096 98.9958 27.654 98.2758 28.05C97.5678 28.434 96.7458 28.626 95.8098 28.626ZM107.781 28.5V26.556L107.655 26.142V22.74C107.655 22.08 107.457 21.57 107.061 21.21C106.665 20.838 106.065 20.652 105.261 20.652C104.721 20.652 104.187 20.736 103.659 20.904C103.143 21.072 102.705 21.306 102.345 21.606L101.463 19.968C101.979 19.572 102.591 19.278 103.299 19.086C104.019 18.882 104.763 18.78 105.531 18.78C106.923 18.78 107.997 19.116 108.753 19.788C109.521 20.448 109.905 21.474 109.905 22.866V28.5H107.781ZM104.757 28.626C104.037 28.626 103.407 28.506 102.867 28.266C102.327 28.014 101.907 27.672 101.607 27.24C101.319 26.796 101.175 26.298 101.175 25.746C101.175 25.206 101.301 24.72 101.553 24.288C101.817 23.856 102.243 23.514 102.831 23.262C103.419 23.01 104.199 22.884 105.171 22.884H107.961V24.378H105.333C104.565 24.378 104.049 24.504 103.785 24.756C103.521 24.996 103.389 25.296 103.389 25.656C103.389 26.064 103.551 26.388 103.875 26.628C104.199 26.868 104.649 26.988 105.225 26.988C105.777 26.988 106.269 26.862 106.701 26.61C107.145 26.358 107.463 25.986 107.655 25.494L108.033 26.844C107.817 27.408 107.427 27.846 106.863 28.158C106.311 28.47 105.609 28.626 104.757 28.626ZM117.22 28.626C116.212 28.626 115.312 28.416 114.52 27.996C113.74 27.564 113.128 26.976 112.684 26.232C112.24 25.488 112.018 24.642 112.018 23.694C112.018 22.734 112.24 21.888 112.684 21.156C113.128 20.412 113.74 19.83 114.52 19.41C115.312 18.99 116.212 18.78 117.22 18.78C118.156 18.78 118.978 18.972 119.686 19.356C120.406 19.728 120.952 20.28 121.324 21.012L119.596 22.02C119.308 21.564 118.954 21.228 118.534 21.012C118.126 20.796 117.682 20.688 117.202 20.688C116.65 20.688 116.152 20.808 115.708 21.048C115.264 21.288 114.916 21.636 114.664 22.092C114.412 22.536 114.286 23.07 114.286 23.694C114.286 24.318 114.412 24.858 114.664 25.314C114.916 25.758 115.264 26.1 115.708 26.34C116.152 26.58 116.65 26.7 117.202 26.7C117.682 26.7 118.126 26.592 118.534 26.376C118.954 26.16 119.308 25.824 119.596 25.368L121.324 26.376C120.952 27.096 120.406 27.654 119.686 28.05C118.978 28.434 118.156 28.626 117.22 28.626ZM123.181 28.5V18.888H125.431V28.5H123.181ZM124.315 17.304C123.895 17.304 123.547 17.172 123.271 16.908C123.007 16.644 122.875 16.326 122.875 15.954C122.875 15.57 123.007 15.252 123.271 15C123.547 14.736 123.895 14.604 124.315 14.604C124.735 14.604 125.077 14.73 125.341 14.982C125.617 15.222 125.755 15.528 125.755 15.9C125.755 16.296 125.623 16.632 125.359 16.908C125.095 17.172 124.747 17.304 124.315 17.304ZM132.704 28.626C131.72 28.626 130.844 28.416 130.076 27.996C129.308 27.564 128.702 26.976 128.258 26.232C127.814 25.488 127.592 24.642 127.592 23.694C127.592 22.734 127.814 21.888 128.258 21.156C128.702 20.412 129.308 19.83 130.076 19.41C130.844 18.99 131.72 18.78 132.704 18.78C133.7 18.78 134.582 18.99 135.35 19.41C136.13 19.83 136.736 20.406 137.168 21.138C137.612 21.87 137.834 22.722 137.834 23.694C137.834 24.642 137.612 25.488 137.168 26.232C136.736 26.976 136.13 27.564 135.35 27.996C134.582 28.416 133.7 28.626 132.704 28.626ZM132.704 26.7C133.256 26.7 133.748 26.58 134.18 26.34C134.612 26.1 134.948 25.752 135.188 25.296C135.44 24.84 135.566 24.306 135.566 23.694C135.566 23.07 135.44 22.536 135.188 22.092C134.948 21.636 134.612 21.288 134.18 21.048C133.748 20.808 133.262 20.688 132.722 20.688C132.17 20.688 131.678 20.808 131.246 21.048C130.826 21.288 130.49 21.636 130.238 22.092C129.986 22.536 129.86 23.07 129.86 23.694C129.86 24.306 129.986 24.84 130.238 25.296C130.49 25.752 130.826 26.1 131.246 26.34C131.678 26.58 132.164 26.7 132.704 26.7ZM145.44 18.78C146.208 18.78 146.892 18.93 147.492 19.23C148.104 19.53 148.584 19.992 148.932 20.616C149.28 21.228 149.454 22.02 149.454 22.992V28.5H147.204V23.28C147.204 22.428 147 21.792 146.592 21.372C146.196 20.952 145.638 20.742 144.918 20.742C144.39 20.742 143.922 20.85 143.514 21.066C143.106 21.282 142.788 21.606 142.56 22.038C142.344 22.458 142.236 22.992 142.236 23.64V28.5H139.986V18.888H142.128V21.48L141.75 20.688C142.086 20.076 142.572 19.608 143.208 19.284C143.856 18.948 144.6 18.78 145.44 18.78ZM156.844 28.626C155.776 28.626 154.84 28.416 154.036 27.996C153.244 27.564 152.626 26.976 152.182 26.232C151.75 25.488 151.534 24.642 151.534 23.694C151.534 22.734 151.744 21.888 152.164 21.156C152.596 20.412 153.184 19.83 153.928 19.41C154.684 18.99 155.542 18.78 156.502 18.78C157.438 18.78 158.272 18.984 159.004 19.392C159.736 19.8 160.312 20.376 160.732 21.12C161.152 21.864 161.362 22.74 161.362 23.748C161.362 23.844 161.356 23.952 161.344 24.072C161.344 24.192 161.338 24.306 161.326 24.414H153.316V22.92H160.138L159.256 23.388C159.268 22.836 159.154 22.35 158.914 21.93C158.674 21.51 158.344 21.18 157.924 20.94C157.516 20.7 157.042 20.58 156.502 20.58C155.95 20.58 155.464 20.7 155.044 20.94C154.636 21.18 154.312 21.516 154.072 21.948C153.844 22.368 153.73 22.866 153.73 23.442V23.802C153.73 24.378 153.862 24.888 154.126 25.332C154.39 25.776 154.762 26.118 155.242 26.358C155.722 26.598 156.274 26.718 156.898 26.718C157.438 26.718 157.924 26.634 158.356 26.466C158.788 26.298 159.172 26.034 159.508 25.674L160.714 27.06C160.282 27.564 159.736 27.954 159.076 28.23C158.428 28.494 157.684 28.626 156.844 28.626ZM166.493 28.626C165.689 28.626 164.915 28.524 164.171 28.32C163.439 28.104 162.857 27.846 162.425 27.546L163.289 25.836C163.721 26.112 164.237 26.34 164.837 26.52C165.437 26.7 166.037 26.79 166.637 26.79C167.345 26.79 167.855 26.694 168.167 26.502C168.491 26.31 168.653 26.052 168.653 25.728C168.653 25.464 168.545 25.266 168.329 25.134C168.113 24.99 167.831 24.882 167.483 24.81C167.135 24.738 166.745 24.672 166.313 24.612C165.893 24.552 165.467 24.474 165.035 24.378C164.615 24.27 164.231 24.12 163.883 23.928C163.535 23.724 163.253 23.454 163.037 23.118C162.821 22.782 162.713 22.338 162.713 21.786C162.713 21.174 162.887 20.646 163.235 20.202C163.583 19.746 164.069 19.398 164.693 19.158C165.329 18.906 166.079 18.78 166.943 18.78C167.591 18.78 168.245 18.852 168.905 18.996C169.565 19.14 170.111 19.344 170.543 19.608L169.679 21.318C169.223 21.042 168.761 20.856 168.293 20.76C167.837 20.652 167.381 20.598 166.925 20.598C166.241 20.598 165.731 20.7 165.395 20.904C165.071 21.108 164.909 21.366 164.909 21.678C164.909 21.966 165.017 22.182 165.233 22.326C165.449 22.47 165.731 22.584 166.079 22.668C166.427 22.752 166.811 22.824 167.231 22.884C167.663 22.932 168.089 23.01 168.509 23.118C168.929 23.226 169.313 23.376 169.661 23.568C170.021 23.748 170.309 24.006 170.525 24.342C170.741 24.678 170.849 25.116 170.849 25.656C170.849 26.256 170.669 26.778 170.309 27.222C169.961 27.666 169.463 28.014 168.815 28.266C168.167 28.506 167.393 28.626 166.493 28.626Z" fill="#454545"/>
</svg>
