<svg width="209" height="45" viewBox="0 0 209 45" fill="none" xmlns="http://www.w3.org/2000/svg">
<path d="M14 31.5H20M14 31.5V26.5M14 31.5H8.6C8.44087 31.5 8.28826 31.4368 8.17574 31.3243C8.06321 31.2117 8 31.0591 8 30.9V27.1C8 26.9409 8.06321 26.7883 8.17574 26.6757C8.28826 26.5632 8.44087 26.5 8.6 26.5H14M20 31.5V19.5M20 31.5H25.4C25.5591 31.5 25.7117 31.4368 25.8243 31.3243C25.9368 31.2117 26 31.0591 26 30.9V14.1C26 13.9409 25.9368 13.7883 25.8243 13.6757C25.7117 13.5632 25.5591 13.5 25.4 13.5H20.6C20.4409 13.5 20.2883 13.5632 20.1757 13.6757C20.0632 13.7883 20 13.9409 20 14.1V19.5M14 26.5V20.1C14 19.9409 14.0632 19.7883 14.1757 19.6757C14.2883 19.5632 14.4409 19.5 14.6 19.5H20" stroke="#3BA549" stroke-width="1.5"/>
<path d="M40.692 28.5V15.9H45.876C46.992 15.9 47.946 16.08 48.738 16.44C49.542 16.8 50.16 17.316 50.592 17.988C51.024 18.66 51.24 19.458 51.24 20.382C51.24 21.306 51.024 22.104 50.592 22.776C50.16 23.448 49.542 23.964 48.738 24.324C47.946 24.684 46.992 24.864 45.876 24.864H41.988L43.032 23.766V28.5H40.692ZM43.032 24.018L41.988 22.884H45.768C46.8 22.884 47.574 22.668 48.09 22.236C48.618 21.792 48.882 21.174 48.882 20.382C48.882 19.578 48.618 18.96 48.09 18.528C47.574 18.096 46.8 17.88 45.768 17.88H41.988L43.032 16.728V24.018ZM53.5365 28.5V15.144H55.7865V28.5H53.5365ZM64.6617 28.5V26.556L64.5357 26.142V22.74C64.5357 22.08 64.3377 21.57 63.9417 21.21C63.5457 20.838 62.9457 20.652 62.1417 20.652C61.6017 20.652 61.0677 20.736 60.5397 20.904C60.0237 21.072 59.5857 21.306 59.2257 21.606L58.3437 19.968C58.8597 19.572 59.4717 19.278 60.1797 19.086C60.8997 18.882 61.6437 18.78 62.4117 18.78C63.8037 18.78 64.8777 19.116 65.6337 19.788C66.4017 20.448 66.7857 21.474 66.7857 22.866V28.5H64.6617ZM61.6377 28.626C60.9177 28.626 60.2877 28.506 59.7477 28.266C59.2077 28.014 58.7877 27.672 58.4877 27.24C58.1997 26.796 58.0557 26.298 58.0557 25.746C58.0557 25.206 58.1817 24.72 58.4337 24.288C58.6977 23.856 59.1237 23.514 59.7117 23.262C60.2997 23.01 61.0797 22.884 62.0517 22.884H64.8417V24.378H62.2137C61.4457 24.378 60.9297 24.504 60.6657 24.756C60.4017 24.996 60.2697 25.296 60.2697 25.656C60.2697 26.064 60.4317 26.388 60.7557 26.628C61.0797 26.868 61.5297 26.988 62.1057 26.988C62.6577 26.988 63.1497 26.862 63.5817 26.61C64.0257 26.358 64.3437 25.986 64.5357 25.494L64.9137 26.844C64.6977 27.408 64.3077 27.846 63.7437 28.158C63.1917 28.47 62.4897 28.626 61.6377 28.626ZM75.1273 18.78C75.8953 18.78 76.5793 18.93 77.1793 19.23C77.7913 19.53 78.2713 19.992 78.6193 20.616C78.9673 21.228 79.1413 22.02 79.1413 22.992V28.5H76.8913V23.28C76.8913 22.428 76.6873 21.792 76.2793 21.372C75.8833 20.952 75.3253 20.742 74.6053 20.742C74.0773 20.742 73.6093 20.85 73.2013 21.066C72.7933 21.282 72.4753 21.606 72.2473 22.038C72.0313 22.458 71.9233 22.992 71.9233 23.64V28.5H69.6733V18.888H71.8153V21.48L71.4373 20.688C71.7733 20.076 72.2593 19.608 72.8953 19.284C73.5433 18.948 74.2873 18.78 75.1273 18.78ZM81.9955 28.5V18.888H84.2455V28.5H81.9955ZM83.1295 17.304C82.7095 17.304 82.3615 17.172 82.0855 16.908C81.8215 16.644 81.6895 16.326 81.6895 15.954C81.6895 15.57 81.8215 15.252 82.0855 15C82.3615 14.736 82.7095 14.604 83.1295 14.604C83.5495 14.604 83.8915 14.73 84.1555 14.982C84.4315 15.222 84.5695 15.528 84.5695 15.9C84.5695 16.296 84.4375 16.632 84.1735 16.908C83.9095 17.172 83.5615 17.304 83.1295 17.304ZM87.5047 28.5V18.348C87.5047 17.34 87.7987 16.536 88.3867 15.936C88.9867 15.324 89.8387 15.018 90.9427 15.018C91.3387 15.018 91.7107 15.06 92.0587 15.144C92.4187 15.228 92.7187 15.36 92.9587 15.54L92.3467 17.232C92.1787 17.1 91.9867 17.004 91.7707 16.944C91.5547 16.872 91.3327 16.836 91.1047 16.836C90.6367 16.836 90.2827 16.968 90.0427 17.232C89.8027 17.484 89.6827 17.868 89.6827 18.384V19.464L89.7547 20.472V28.5H87.5047ZM85.9207 20.76V18.96H92.3287V20.76H85.9207ZM93.9127 28.5V18.888H96.1627V28.5H93.9127ZM95.0467 17.304C94.6267 17.304 94.2787 17.172 94.0027 16.908C93.7387 16.644 93.6067 16.326 93.6067 15.954C93.6067 15.57 93.7387 15.252 94.0027 15C94.2787 14.736 94.6267 14.604 95.0467 14.604C95.4667 14.604 95.8087 14.73 96.0727 14.982C96.3487 15.222 96.4867 15.528 96.4867 15.9C96.4867 16.296 96.3547 16.632 96.0907 16.908C95.8267 17.172 95.4787 17.304 95.0467 17.304ZM103.527 28.626C102.519 28.626 101.619 28.416 100.827 27.996C100.047 27.564 99.4346 26.976 98.9906 26.232C98.5466 25.488 98.3246 24.642 98.3246 23.694C98.3246 22.734 98.5466 21.888 98.9906 21.156C99.4346 20.412 100.047 19.83 100.827 19.41C101.619 18.99 102.519 18.78 103.527 18.78C104.463 18.78 105.285 18.972 105.993 19.356C106.713 19.728 107.259 20.28 107.631 21.012L105.903 22.02C105.615 21.564 105.261 21.228 104.841 21.012C104.433 20.796 103.989 20.688 103.509 20.688C102.957 20.688 102.459 20.808 102.015 21.048C101.571 21.288 101.223 21.636 100.971 22.092C100.719 22.536 100.593 23.07 100.593 23.694C100.593 24.318 100.719 24.858 100.971 25.314C101.223 25.758 101.571 26.1 102.015 26.34C102.459 26.58 102.957 26.7 103.509 26.7C103.989 26.7 104.433 26.592 104.841 26.376C105.261 26.16 105.615 25.824 105.903 25.368L107.631 26.376C107.259 27.096 106.713 27.654 105.993 28.05C105.285 28.434 104.463 28.626 103.527 28.626ZM115.498 28.5V26.556L115.372 26.142V22.74C115.372 22.08 115.174 21.57 114.778 21.21C114.382 20.838 113.782 20.652 112.978 20.652C112.438 20.652 111.904 20.736 111.376 20.904C110.86 21.072 110.422 21.306 110.062 21.606L109.18 19.968C109.696 19.572 110.308 19.278 111.016 19.086C111.736 18.882 112.48 18.78 113.248 18.78C114.64 18.78 115.714 19.116 116.47 19.788C117.238 20.448 117.622 21.474 117.622 22.866V28.5H115.498ZM112.474 28.626C111.754 28.626 111.124 28.506 110.584 28.266C110.044 28.014 109.624 27.672 109.324 27.24C109.036 26.796 108.892 26.298 108.892 25.746C108.892 25.206 109.018 24.72 109.27 24.288C109.534 23.856 109.96 23.514 110.548 23.262C111.136 23.01 111.916 22.884 112.888 22.884H115.678V24.378H113.05C112.282 24.378 111.766 24.504 111.502 24.756C111.238 24.996 111.106 25.296 111.106 25.656C111.106 26.064 111.268 26.388 111.592 26.628C111.916 26.868 112.366 26.988 112.942 26.988C113.494 26.988 113.986 26.862 114.418 26.61C114.862 26.358 115.18 25.986 115.372 25.494L115.75 26.844C115.534 27.408 115.144 27.846 114.58 28.158C114.028 28.47 113.326 28.626 112.474 28.626ZM124.937 28.626C123.929 28.626 123.029 28.416 122.237 27.996C121.457 27.564 120.845 26.976 120.401 26.232C119.957 25.488 119.735 24.642 119.735 23.694C119.735 22.734 119.957 21.888 120.401 21.156C120.845 20.412 121.457 19.83 122.237 19.41C123.029 18.99 123.929 18.78 124.937 18.78C125.873 18.78 126.695 18.972 127.403 19.356C128.123 19.728 128.669 20.28 129.041 21.012L127.313 22.02C127.025 21.564 126.671 21.228 126.251 21.012C125.843 20.796 125.399 20.688 124.919 20.688C124.367 20.688 123.869 20.808 123.425 21.048C122.981 21.288 122.633 21.636 122.381 22.092C122.129 22.536 122.003 23.07 122.003 23.694C122.003 24.318 122.129 24.858 122.381 25.314C122.633 25.758 122.981 26.1 123.425 26.34C123.869 26.58 124.367 26.7 124.919 26.7C125.399 26.7 125.843 26.592 126.251 26.376C126.671 26.16 127.025 25.824 127.313 25.368L129.041 26.376C128.669 27.096 128.123 27.654 127.403 28.05C126.695 28.434 125.873 28.626 124.937 28.626ZM130.898 28.5V18.888H133.148V28.5H130.898ZM132.032 17.304C131.612 17.304 131.264 17.172 130.988 16.908C130.724 16.644 130.592 16.326 130.592 15.954C130.592 15.57 130.724 15.252 130.988 15C131.264 14.736 131.612 14.604 132.032 14.604C132.452 14.604 132.794 14.73 133.058 14.982C133.334 15.222 133.472 15.528 133.472 15.9C133.472 16.296 133.34 16.632 133.076 16.908C132.812 17.172 132.464 17.304 132.032 17.304ZM140.421 28.626C139.437 28.626 138.561 28.416 137.793 27.996C137.025 27.564 136.419 26.976 135.975 26.232C135.531 25.488 135.309 24.642 135.309 23.694C135.309 22.734 135.531 21.888 135.975 21.156C136.419 20.412 137.025 19.83 137.793 19.41C138.561 18.99 139.437 18.78 140.421 18.78C141.417 18.78 142.299 18.99 143.067 19.41C143.847 19.83 144.453 20.406 144.885 21.138C145.329 21.87 145.551 22.722 145.551 23.694C145.551 24.642 145.329 25.488 144.885 26.232C144.453 26.976 143.847 27.564 143.067 27.996C142.299 28.416 141.417 28.626 140.421 28.626ZM140.421 26.7C140.973 26.7 141.465 26.58 141.897 26.34C142.329 26.1 142.665 25.752 142.905 25.296C143.157 24.84 143.283 24.306 143.283 23.694C143.283 23.07 143.157 22.536 142.905 22.092C142.665 21.636 142.329 21.288 141.897 21.048C141.465 20.808 140.979 20.688 140.439 20.688C139.887 20.688 139.395 20.808 138.963 21.048C138.543 21.288 138.207 21.636 137.955 22.092C137.703 22.536 137.577 23.07 137.577 23.694C137.577 24.306 137.703 24.84 137.955 25.296C138.207 25.752 138.543 26.1 138.963 26.34C139.395 26.58 139.881 26.7 140.421 26.7ZM153.157 18.78C153.925 18.78 154.609 18.93 155.209 19.23C155.821 19.53 156.301 19.992 156.649 20.616C156.997 21.228 157.171 22.02 157.171 22.992V28.5H154.921V23.28C154.921 22.428 154.717 21.792 154.309 21.372C153.913 20.952 153.355 20.742 152.635 20.742C152.107 20.742 151.639 20.85 151.231 21.066C150.823 21.282 150.505 21.606 150.277 22.038C150.061 22.458 149.953 22.992 149.953 23.64V28.5H147.703V18.888H149.845V21.48L149.467 20.688C149.803 20.076 150.289 19.608 150.925 19.284C151.573 18.948 152.317 18.78 153.157 18.78ZM164.56 28.626C163.492 28.626 162.556 28.416 161.752 27.996C160.96 27.564 160.342 26.976 159.898 26.232C159.466 25.488 159.25 24.642 159.25 23.694C159.25 22.734 159.46 21.888 159.88 21.156C160.312 20.412 160.9 19.83 161.644 19.41C162.4 18.99 163.258 18.78 164.218 18.78C165.154 18.78 165.988 18.984 166.72 19.392C167.452 19.8 168.028 20.376 168.448 21.12C168.868 21.864 169.078 22.74 169.078 23.748C169.078 23.844 169.072 23.952 169.06 24.072C169.06 24.192 169.054 24.306 169.042 24.414H161.032V22.92H167.854L166.972 23.388C166.984 22.836 166.87 22.35 166.63 21.93C166.39 21.51 166.06 21.18 165.64 20.94C165.232 20.7 164.758 20.58 164.218 20.58C163.666 20.58 163.18 20.7 162.76 20.94C162.352 21.18 162.028 21.516 161.788 21.948C161.56 22.368 161.446 22.866 161.446 23.442V23.802C161.446 24.378 161.578 24.888 161.842 25.332C162.106 25.776 162.478 26.118 162.958 26.358C163.438 26.598 163.99 26.718 164.614 26.718C165.154 26.718 165.64 26.634 166.072 26.466C166.504 26.298 166.888 26.034 167.224 25.674L168.43 27.06C167.998 27.564 167.452 27.954 166.792 28.23C166.144 28.494 165.4 28.626 164.56 28.626ZM174.21 28.626C173.406 28.626 172.632 28.524 171.888 28.32C171.156 28.104 170.574 27.846 170.142 27.546L171.006 25.836C171.438 26.112 171.954 26.34 172.554 26.52C173.154 26.7 173.754 26.79 174.354 26.79C175.062 26.79 175.572 26.694 175.884 26.502C176.208 26.31 176.37 26.052 176.37 25.728C176.37 25.464 176.262 25.266 176.046 25.134C175.83 24.99 175.548 24.882 175.2 24.81C174.852 24.738 174.462 24.672 174.03 24.612C173.61 24.552 173.184 24.474 172.752 24.378C172.332 24.27 171.948 24.12 171.6 23.928C171.252 23.724 170.97 23.454 170.754 23.118C170.538 22.782 170.43 22.338 170.43 21.786C170.43 21.174 170.604 20.646 170.952 20.202C171.3 19.746 171.786 19.398 172.41 19.158C173.046 18.906 173.796 18.78 174.66 18.78C175.308 18.78 175.962 18.852 176.622 18.996C177.282 19.14 177.828 19.344 178.26 19.608L177.396 21.318C176.94 21.042 176.478 20.856 176.01 20.76C175.554 20.652 175.098 20.598 174.642 20.598C173.958 20.598 173.448 20.7 173.112 20.904C172.788 21.108 172.626 21.366 172.626 21.678C172.626 21.966 172.734 22.182 172.95 22.326C173.166 22.47 173.448 22.584 173.796 22.668C174.144 22.752 174.528 22.824 174.948 22.884C175.38 22.932 175.806 23.01 176.226 23.118C176.646 23.226 177.03 23.376 177.378 23.568C177.738 23.748 178.026 24.006 178.242 24.342C178.458 24.678 178.566 25.116 178.566 25.656C178.566 26.256 178.386 26.778 178.026 27.222C177.678 27.666 177.18 28.014 176.532 28.266C175.884 28.506 175.11 28.626 174.21 28.626Z" fill="#454545"/>
</svg>
