<svg width="69" height="69" viewBox="0 0 69 69" fill="none" xmlns="http://www.w3.org/2000/svg">
<path d="M25.3751 21.75C25.3751 16.7104 29.4605 12.625 34.5001 12.625C39.5397 12.625 43.6251 16.7104 43.6251 21.75C43.6251 26.7896 39.5397 30.875 34.5001 30.875C29.4605 30.875 25.3751 26.7896 25.3751 21.75ZM14.0417 48.6667C14.0417 43.6271 18.1272 39.5417 23.1667 39.5417H24.1325C24.4971 39.5417 24.8594 39.5993 25.206 39.7125L27.6583 40.5132C32.104 41.9649 36.8962 41.9649 41.3419 40.5132L43.7941 39.7125C44.1407 39.5993 44.503 39.5417 44.8676 39.5417H45.8334C50.873 39.5417 54.9584 43.6271 54.9584 48.6667V52.0335C54.9584 53.4325 53.9445 54.6253 52.5638 54.8508C40.6005 56.804 28.3997 56.804 16.4364 54.8508C15.0556 54.6253 14.0417 53.4325 14.0417 52.0335V48.6667Z" stroke="#3BA549" stroke-width="3" stroke-linecap="round" stroke-linejoin="round"/>
</svg>
