<svg width="22" height="21" viewBox="0 0 22 21" fill="none" xmlns="http://www.w3.org/2000/svg">
<path fill-rule="evenodd" clip-rule="evenodd" d="M15.875 0C16.1734 0 16.4595 0.118526 16.6705 0.329505C16.8815 0.540483 17 0.826631 17 1.125V3H20C20.3978 3 20.7794 3.15804 21.0607 3.43934C21.342 3.72064 21.5 4.10218 21.5 4.5V19.5C21.5 19.8978 21.342 20.2794 21.0607 20.5607C20.7794 20.842 20.3978 21 20 21H2C1.60218 21 1.22064 20.842 0.93934 20.5607C0.658035 20.2794 0.5 19.8978 0.5 19.5V4.5C0.5 4.10218 0.658035 3.72064 0.93934 3.43934C1.22064 3.15804 1.60218 3 2 3H5V1.125C5 0.826631 5.11853 0.540483 5.3295 0.329505C5.54048 0.118526 5.82663 0 6.125 0C6.42337 0 6.70952 0.118526 6.9205 0.329505C7.13147 0.540483 7.25 0.826631 7.25 1.125V3H14.75V1.125C14.75 0.826631 14.8685 0.540483 15.0795 0.329505C15.2905 0.118526 15.5766 0 15.875 0ZM2.75 9.75V18.75H19.25V9.75H2.75ZM2.75 7.5H19.25V5.25H2.75V7.5ZM14.42 11.955C14.6307 12.1659 14.749 12.4519 14.749 12.75C14.749 13.0481 14.6307 13.3341 14.42 13.545L11.045 16.92C10.8341 17.1307 10.5481 17.249 10.25 17.249C9.95187 17.249 9.66594 17.1307 9.455 16.92L7.58 15.045C7.46947 14.942 7.38082 14.8178 7.31933 14.6798C7.25784 14.5418 7.22478 14.3928 7.22211 14.2418C7.21945 14.0907 7.24723 13.9407 7.30382 13.8006C7.3604 13.6605 7.44461 13.5333 7.55144 13.4264C7.65827 13.3196 7.78552 13.2354 7.9256 13.1788C8.06569 13.1222 8.21573 13.0944 8.36678 13.0971C8.51784 13.0998 8.66681 13.1328 8.80481 13.1943C8.94281 13.2558 9.06701 13.3445 9.17 13.455L10.25 14.535L12.83 11.955C13.0409 11.7443 13.3269 11.626 13.625 11.626C13.9231 11.626 14.2091 11.7443 14.42 11.955Z" fill="#3BA549"/>
</svg>
