<svg width="44" height="30" viewBox="0 0 44 30" fill="none" xmlns="http://www.w3.org/2000/svg">
<path d="M33.498 9.18601C33.3624 8.67529 33.095 8.20915 32.7226 7.83428C32.3502 7.4594 31.8858 7.18896 31.376 7.05001C29.505 6.54501 22 6.54501 22 6.54501C22 6.54501 14.495 6.54501 12.623 7.05001C12.1134 7.1892 11.6493 7.45975 11.2771 7.8346C10.9049 8.20944 10.6376 8.67545 10.502 9.18601C10 11.07 10 15 10 15C10 15 10 18.93 10.502 20.814C10.6376 21.3247 10.905 21.7909 11.2774 22.1658C11.6498 22.5406 12.1142 22.8111 12.624 22.95C14.495 23.455 22 23.455 22 23.455C22 23.455 29.505 23.455 31.377 22.95C31.8869 22.8112 32.3513 22.5407 32.7237 22.1659C33.0961 21.791 33.3635 21.3248 33.499 20.814C34 18.93 34 15 34 15C34 15 34 11.07 33.498 9.18601ZM19.545 18.568V11.432L25.818 15L19.545 18.568Z" fill="white"/>
</svg>
