<svg width="24" height="25" viewBox="0 0 24 25" fill="none" xmlns="http://www.w3.org/2000/svg">
<path fill-rule="evenodd" clip-rule="evenodd" d="M13.5579 6.03423C12.6873 5.19887 11.3128 5.19887 10.4422 6.03423L5.8158 10.4736C5.70245 10.5823 5.6262 10.724 5.59787 10.8785C5.04373 13.9004 5.00283 16.994 5.47687 20.0295L5.58939 20.75H8.56585V14.5387C8.56585 14.1244 8.90164 13.7887 9.31585 13.7887H14.6843C15.0985 13.7887 15.4343 14.1244 15.4343 14.5387V20.75H18.4107L18.5232 20.0295C18.9973 16.994 18.9564 13.9004 18.4023 10.8785C18.3739 10.724 18.2977 10.5823 18.1843 10.4736L13.5579 6.03423ZM9.40369 4.95191C10.8546 3.55965 13.1455 3.55965 14.5964 4.95191L19.2229 9.39125C19.5634 9.71804 19.7925 10.1437 19.8777 10.608C20.4622 13.7956 20.5053 17.059 20.0053 20.2609L19.8245 21.4184C19.7498 21.8971 19.3375 22.25 18.853 22.25H14.6843C14.2701 22.25 13.9343 21.9142 13.9343 21.5V15.2887H10.0659V21.5C10.0659 21.9142 9.73007 22.25 9.31585 22.25H5.14712C4.66264 22.25 4.25035 21.8971 4.1756 21.4184L3.99484 20.2609C3.49479 17.059 3.53794 13.7956 4.12247 10.608C4.2076 10.1437 4.43668 9.71804 4.77725 9.39125L9.40369 4.95191Z" fill="#3BA549"/>
</svg>
